STARTFONT 2.3
FONT -FontForge-Henny Penny-Book-R-Normal--28-280-72-72-P-160-ISO10646-1
SIZE 28 72 72  2
FONTBOUNDINGBOX 39 50 -4 -18
COMMENT "Generated by fontforge, http://fontforge.sourceforge.net"
COMMENT "Copyright (c) 2012, Brownfox (gayaneh.b@gmail.com), with Reserved Font Name "Henny Penny""
STARTPROPERTIES 40
FOUNDRY "FontForge"
FAMILY_NAME "Henny Penny"
WEIGHT_NAME "Book"
SLANT "R"
SETWIDTH_NAME "Normal"
ADD_STYLE_NAME ""
PIXEL_SIZE 28
POINT_SIZE 280
RESOLUTION_X 72
RESOLUTION_Y 72
SPACING "P"
AVERAGE_WIDTH 160
CHARSET_REGISTRY "ISO10646"
CHARSET_ENCODING "1"
FONTNAME_REGISTRY ""
CHARSET_COLLECTIONS "ISO10646-1"
BITS_PER_PIXEL 2
FONT_NAME "HennyPenny-Regular"
FACE_NAME "Henny Penny"
COPYRIGHT "Copyright (c) 2012, Brownfox (gayaneh.b@gmail.com), with Reserved Font Name "Henny Penny""
FONT_VERSION "1.001"
FONT_ASCENT 22
FONT_DESCENT 6
UNDERLINE_POSITION -3
UNDERLINE_THICKNESS 2
X_HEIGHT 17
CAP_HEIGHT 21
RAW_ASCENT 799
RAW_DESCENT 200
NORM_SPACE 8
RELATIVE_WEIGHT 40
RELATIVE_SETWIDTH 50
SUPERSCRIPT_X 0
SUPERSCRIPT_Y 9
SUPERSCRIPT_SIZE 16
SUBSCRIPT_X 0
SUBSCRIPT_Y 2
SUBSCRIPT_SIZE 16
AVG_LOWERCASE_WIDTH 142
AVG_UPPERCASE_WIDTH 200
ENDPROPERTIES
CHARS 233
STARTCHAR space
ENCODING 32
SWIDTH 270 0
DWIDTH 8 0
BBX 1 1 0 0
BITMAP
00
ENDCHAR
STARTCHAR exclam
ENCODING 33
SWIDTH 249 0
DWIDTH 7 0
BBX 5 28 1 -1
BITMAP
2E00
7F40
BF40
7F40
7F40
7F40
3F40
3F40
2F40
2F00
1F00
1F00
1F00
0E00
0E00
0E00
0D00
0D00
0C00
0C00
0400
0000
0000
0000
2D00
7F00
7F00
2D00
ENDCHAR
STARTCHAR quotedbl
ENCODING 34
SWIDTH 292 0
DWIDTH 8 0
BBX 6 10 1 13
BITMAP
70E0
B5E0
B5E0
75E0
74E0
34D0
34D0
34D0
2080
1080
ENDCHAR
STARTCHAR numbersign
ENCODING 35
SWIDTH 1030 0
DWIDTH 29 0
BBX 27 32 1 -9
BITMAP
00000001000000
00000009000000
0000000C000000
00000018040000
00000020080000
00000060240000
00000090300000
000000C0600000
15400280D00000
5AAABFEBD54000
00000E07955AA4
00000C0A000000
0000180D000000
00002418000000
00007034000000
0000A07016A000
0001EAFAA50000
1ABFEBD0000000
69574340000000
000B0700000000
001E0A00000000
002C0D00000000
00382800000000
00B43400000000
00E07000000000
01D0E000000000
0181C000000000
00028000000000
00034000000000
000B0000000000
000D0000000000
00040000000000
ENDCHAR
STARTCHAR dollar
ENCODING 36
SWIDTH 799 0
DWIDTH 22 0
BBX 18 30 2 -5
BITMAP
0000008000
0000014050
0000024080
0001BFAB80
000BD2BF40
002F421F00
003F460A00
007F450A00
007F890500
003FD80500
002FF80000
001FFC0000
0007FF0000
0002FF8000
0000BFE000
00003FF400
00006BFC00
010053FD00
020081FE00
0600C0BE00
0600807F00
0B01407E00
0F42407E00
1F82007C00
2AD200F800
507A07E000
000BFA4000
0008000000
0008000000
0018000000
ENDCHAR
STARTCHAR percent
ENCODING 37
SWIDTH 789 0
DWIDTH 22 0
BBX 22 26 0 0
BITMAP
01BF80000900
07C2E0001800
0F40F8003400
1F40BC00A000
1F407C02C000
1F407C074000
1F80780D0000
0FC0B4280000
07E1E0700000
01BE41D00000
000003800000
00000A000000
00001C000000
000034000000
0000A01BE400
0002C0B82E00
000741F00B80
000D02E007C0
002803D007D0
007007D007D0
00D007D007D0
024003D00BC0
0A0002E00F40
1C0000F82E00
3400002FE400
600000000000
ENDCHAR
STARTCHAR ampersand
ENCODING 38
SWIDTH 773 0
DWIDTH 22 0
BBX 20 27 1 -2
BITMAP
001BE40000
00B42C0000
01C01D0000
02801D0000
03802D0000
03807C0000
0380F40000
03C3E00000
03DF800000
02FF000090
02FD0002E0
03F8000BE0
0BFC01BFE0
2FFD1A42E0
3F7F0001D0
BF1F8001D0
FE0BD001C0
FE07F00280
FE02F80340
FE00BE0600
BF003F8C00
7F401FF401
2FC00BF906
0BF41BFFAD
01BFE4BFF8
0000001FF0
00000002D0
ENDCHAR
STARTCHAR quotesingle
ENCODING 39
SWIDTH 174 0
DWIDTH 5 0
BBX 3 9 1 13
BITMAP
74
B4
74
74
74
34
24
24
10
ENDCHAR
STARTCHAR parenleft
ENCODING 40
SWIDTH 431 0
DWIDTH 12 0
BBX 12 40 0 -12
BITMAP
000800
002400
007000
00E000
01C000
038000
078000
0B4000
0F0000
1F0000
2E0000
3E0000
3D0000
7D0000
7D0000
BD0000
BD0000
BD0000
BD0000
BD0000
BD0000
7E0000
7E0000
3F0000
3F4000
2F4000
1F8000
0FC000
0BD000
03F000
02F400
00FC00
007D00
002F00
000F80
0007D0
0001F0
000078
00001E
000001
ENDCHAR
STARTCHAR parenright
ENCODING 41
SWIDTH 443 0
DWIDTH 12 0
BBX 12 28 0 -7
BITMAP
0E4000
07E000
00BD00
002F40
000FD0
0007F0
0002F8
0001FC
0000FD
0000BE
00007F
00007F
00003F
00003F
00003F
00003F
00007E
00007D
0000BC
0000F8
0002F0
0003E0
000B80
002E00
00B800
07D000
7E0000
100000
ENDCHAR
STARTCHAR asterisk
ENCODING 42
SWIDTH 490 0
DWIDTH 14 0
BBX 12 12 1 14
BITMAP
002400
007800
007C04
003C2D
002CB8
690DE0
BFEE40
055E00
00B780
02D1F4
0780BC
01007C
ENDCHAR
STARTCHAR plus
ENCODING 43
SWIDTH 440 0
DWIDTH 12 0
BBX 10 15 1 1
BITMAP
001400
002400
002400
002400
002400
002400
003550
7FFE50
002400
002400
001800
001800
000C00
000C00
000400
ENDCHAR
STARTCHAR comma
ENCODING 44
SWIDTH 251 0
DWIDTH 7 0
BBX 5 9 1 -4
BITMAP
2E00
BF40
7F80
3F80
0F40
0B00
0900
1800
2000
ENDCHAR
STARTCHAR hyphen
ENCODING 45
SWIDTH 436 0
DWIDTH 12 0
BBX 10 2 1 5
BITMAP
140040
6FFFD0
ENDCHAR
STARTCHAR period
ENCODING 46
SWIDTH 238 0
DWIDTH 7 0
BBX 5 4 1 -1
BITMAP
2E00
BF40
BF40
2E00
ENDCHAR
STARTCHAR slash
ENCODING 47
SWIDTH 690 0
DWIDTH 19 0
BBX 19 26 0 0
BITMAP
0000000008
0000000028
0000000070
00000000D0
0000000280
0000000700
0000001D00
0000003800
000000A000
000001C000
0000074000
00000A0000
00002C0000
0000740000
0000D00000
0002800000
0007000000
001D000000
0028000000
00A0000000
01C0000000
0340000000
0A00000000
1C00000000
3400000000
9000000000
ENDCHAR
STARTCHAR zero
ENCODING 48
SWIDTH 723 0
DWIDTH 20 0
BBX 20 20 0 2
BITMAP
0006FF9000
007D01BD00
02E0001F80
0BC00007E0
1F400002F4
2F000001FC
7E000000FD
7E000000BE
BD000000BE
BD0000007F
BE0000007F
BE0000007F
7F0000007E
3F000000BD
2F400000BC
0FC00000F8
07E00002F0
01F80007D0
006F406E00
0006BFA400
ENDCHAR
STARTCHAR one
ENCODING 49
SWIDTH 505 0
DWIDTH 14 0
BBX 14 26 0 -2
BITMAP
00050000
00090000
001E0000
002E0000
007F0000
01FF0000
07FF4000
292F4000
901F8000
000F8000
000FC000
000BC000
000BD000
000BD000
0007E000
0007E000
0007F000
0007F000
0003F400
0003F800
0003FC00
0007FE00
000BFFE0
006E5000
02E00000
05000000
ENDCHAR
STARTCHAR two
ENCODING 50
SWIDTH 534 0
DWIDTH 15 0
BBX 15 25 0 -2
BITMAP
00BFA000
07FFFD00
1E06FF00
3400BF40
60003F80
90003F80
80003F80
80003F40
40003F00
00007E00
0000BC00
0001F400
0002D000
000B4000
001D0000
00740000
02800000
0A000000
3F400004
1BF80018
01BF9060
001FFFD0
0002FF80
00007F40
00000A00
ENDCHAR
STARTCHAR three
ENCODING 51
SWIDTH 511 0
DWIDTH 14 0
BBX 15 23 0 -2
BITMAP
19400000
2FFFA900
2FFFFD00
2E402800
28003000
24009000
10024000
00060000
001D0000
001B9000
0001FD00
00007F40
00001FD0
40000BE0
800003F0
C00003F4
900003F4
B00007F4
38000FF0
2F407FE0
0FFFFFC0
02FFFF00
006FE400
ENDCHAR
STARTCHAR four
ENCODING 52
SWIDTH 712 0
DWIDTH 20 0
BBX 20 27 0 -4
BITMAP
0000024000
00000B0000
00001E0000
00007E0000
0000FE0000
00027E0000
00082F0000
00242F0000
00901F4000
02401F8000
0A000F8000
2C000FC000
BE000BD000
2FE40BE000
01BE47E000
000BFBF008
00007FFE64
000007FFE0
000002FFD0
000001F840
000001FC00
000000FD00
000000FD00
000001FF00
00001AFF80
00000001A4
0000000005
ENDCHAR
STARTCHAR five
ENCODING 53
SWIDTH 757 0
DWIDTH 21 0
BBX 21 26 0 -3
BITMAP
0000029000C0
00000BF80280
00000FFF9B40
000024BFFF00
0000201FFE00
00009002FC00
000080007400
000200000000
000640000000
000BFE400000
0001BFF40000
000007FD0000
000000FF4000
1400007F8000
2000002FC000
5000002FC000
9000001FC000
8000002FC000
C000002FC000
9000003F8000
A000007F4000
700000BE0000
2D0002FC0000
0F901FF40000
07FFFF800000
006FF9000000
ENDCHAR
STARTCHAR six
ENCODING 54
SWIDTH 598 0
DWIDTH 17 0
BBX 17 22 0 0
BITMAP
0006FE4000
007E41B400
01F8001D00
07F0000700
0FD0000140
1FC0000000
3F80000000
3F46FE4000
7F6906E000
7FE000BC00
BFC0003E00
BF40002F00
BF40001F40
7F00001F40
7F00000F40
3F40000F40
2F40001F00
1F80001E00
0BC0003D00
02E000B800
007D02E000
0006FE4000
ENDCHAR
STARTCHAR seven
ENCODING 55
SWIDTH 507 0
DWIDTH 14 0
BBX 14 23 0 -2
BITMAP
540005B0
FFFFFFD0
BFFFFF80
B416FF40
70001E00
60000900
50001800
40002400
00006000
0000D000
0001C000
00038000
00074000
000F0000
001E0000
002E0000
007D0000
00BD0000
00FC0000
01FC0000
02FC0000
03F80000
01000000
ENDCHAR
STARTCHAR eight
ENCODING 56
SWIDTH 476 0
DWIDTH 13 0
BBX 13 23 0 -1
BITMAP
00BF9000
07F42800
0FD00800
1FC00900
2FC00500
2FD00800
2FE01800
1FF82000
0BFF8000
03FFD000
00FFF400
02FFFD00
0B41FF00
2C003F80
78001FC0
B0000BC0
B00007C0
B00003C0
B00007C0
74000740
3C000E00
0F407800
01BF9000
ENDCHAR
STARTCHAR nine
ENCODING 57
SWIDTH 601 0
DWIDTH 17 0
BBX 17 21 0 0
BITMAP
006FE90000
07D02F8000
1F4007F000
3E0002F800
7D0001FD00
BD0000FF00
BD0000BF00
BD0000BF40
BD0000BF40
7E0000BF80
3F4000FF40
1FC001FF40
07F407FF40
006FE9FF00
000000FE00
000001FD00
000002F800
000003F000
24000BD000
0E407E0000
01BFE40000
ENDCHAR
STARTCHAR colon
ENCODING 58
SWIDTH 246 0
DWIDTH 7 0
BBX 5 14 1 -1
BITMAP
2E00
BF40
BF40
2E00
0000
0000
0000
0000
0000
0000
2E00
3F40
3F40
2E00
ENDCHAR
STARTCHAR semicolon
ENCODING 59
SWIDTH 266 0
DWIDTH 7 0
BBX 5 18 1 -5
BITMAP
1F40
3FC0
3FC0
1F40
0000
0000
0000
0000
0000
0000
2E00
7F80
7F80
2F80
0B00
0D00
2800
5000
ENDCHAR
STARTCHAR less
ENCODING 60
SWIDTH 522 0
DWIDTH 15 0
BBX 12 13 1 2
BITMAP
00000A
000078
0002D0
001E00
00B400
078000
7D0000
2E0000
06E000
007E00
0007D0
00007D
000006
ENDCHAR
STARTCHAR equal
ENCODING 61
SWIDTH 655 0
DWIDTH 18 0
BBX 16 5 1 5
BITMAP
0055AAFE
6FEA5500
00000000
00000000
7FFFEAA0
ENDCHAR
STARTCHAR greater
ENCODING 62
SWIDTH 533 0
DWIDTH 15 0
BBX 12 15 1 1
BITMAP
400000
280000
074000
00A400
001E00
0002D0
000079
00000F
00001D
0000B4
000680
001D00
00A000
074000
040000
ENDCHAR
STARTCHAR question
ENCODING 63
SWIDTH 564 0
DWIDTH 16 0
BBX 15 26 0 -3
BITMAP
002FF900
02D06F80
0B400BE0
1E0003F4
2E0002F8
3F0002FC
7F4002FC
7FD003F8
7FE007F4
7FF00FF0
2FF02FD0
0BD0BF40
0002F800
000BD000
002E0000
00B40000
01C00000
02400000
03000000
02440000
01F40000
00000000
00000000
00B80000
00FC0000
00780000
ENDCHAR
STARTCHAR at
ENCODING 64
SWIDTH 898 0
DWIDTH 25 0
BBX 23 28 1 -8
BITMAP
00001BFE4000
0002E401B800
001D00000B00
0070000001C0
01C0000000A0
030000000030
0900000BD024
1C00BF8BD018
2407D0BFC00C
301F402FC00C
202E001FC00C
607D000FC00C
50BD000F800C
90BD000B8018
90BD000F8018
90BE000FC024
50BE001BC070
607F4027E1E0
602FD0A2FFC0
300FFF807E00
2402FE000000
180000B80000
0D0002FD0000
060001FD0000
0280007D0000
00A0003C0000
002D41B40000
0006FE800000
ENDCHAR
STARTCHAR A
ENCODING 65
SWIDTH 784 0
DWIDTH 22 0
BBX 23 25 0 -3
BITMAP
000007000000
0001BF400000
003EFF800000
00007FC00000
0000ABD00000
000097E00000
0000C3F00000
000182F40000
000241F80000
000301FC0000
000600FD0000
000A40BE0000
000DB9BF4000
001806FF8000
0034007FC000
0070002FD000
00A0000FE000
00D0000BF000
02C00007F400
FFD00007F800
06F80003FC00
00140002FE00
00000001FF80
00000007FFF4
000000794000
ENDCHAR
STARTCHAR B
ENCODING 66
SWIDTH 685 0
DWIDTH 19 0
BBX 19 29 0 -5
BITMAP
0001AFE400
6ABD06FD00
07F800BF00
01FC007F40
00FC003F40
00BC003F40
00BC003F00
007C007E00
007D00B800
007D02D000
007D5E0000
007FABE400
007D007F40
007E000FD0
007E0007F0
007E0003F4
007E0002F8
007E0002F8
007F0002F8
007F0002F8
007F0002F8
007F0003F0
007F4007E0
00BF800FC0
00FFD07E00
02FFFFE400
1E40000000
A400000000
4000000000
ENDCHAR
STARTCHAR C
ENCODING 67
SWIDTH 742 0
DWIDTH 21 0
BBX 21 27 0 -3
BITMAP
000000000400
000000001400
000000002400
000000002400
0006BFEAB400
002F901BF800
01FD0001F800
07F400003C00
0FE000000D00
2FC000000500
3F8000000000
7F8000000000
BF4000000000
BF4000000000
BF4000000000
FF4000000000
BF4000000040
BF8000000140
BF8000000140
7FC000000240
3FD000000200
2FE000000200
0FF400000900
07FD00001800
01FF40006000
002FE4068000
0001BFE90000
ENDCHAR
STARTCHAR D
ENCODING 68
SWIDTH 726 0
DWIDTH 20 0
BBX 20 24 0 -5
BITMAP
1555AFF900
1BFD01BF80
02F8001FF0
01F80007F8
01F80002FD
00F80001FD
00F80000FE
00F80000FF
00F80000FF
00B80000FF
00BC0000FE
00BC0001FD
00BC0001FC
00BD0003F8
00FD0007E0
00FE001F80
00FF807900
01FFFE4000
02FF900000
03E4000000
0B40000000
2800000000
A000000000
4000000000
ENDCHAR
STARTCHAR E
ENCODING 69
SWIDTH 557 0
DWIDTH 16 0
BBX 16 26 0 -3
BITMAP
55556AF0
2FF94070
0FF40030
07F40020
07F40020
03F40000
03F40000
02F40000
02F80000
02F80400
01F81800
01FFF400
01F86400
00F81400
00F81400
00FC0000
00FC0000
00BC0000
00BC0000
00BC0000
00BD0001
007D0006
007D0009
00BE002D
7FFFEBFC
000156A8
ENDCHAR
STARTCHAR F
ENCODING 70
SWIDTH 533 0
DWIDTH 15 0
BBX 16 25 0 -1
BITMAP
0000006D
00006FFD
15AF407D
6FFD002C
07FD001C
02FD0028
01FD0024
01FD0020
00FD0400
00FD0800
00BD0800
00BD2800
00BFF800
007E2800
007E0800
007E0800
003E0800
003E0000
003E0000
003E0000
003E0000
003F0000
003F0000
01BF4000
3FAAF400
ENDCHAR
STARTCHAR G
ENCODING 71
SWIDTH 750 0
DWIDTH 21 0
BBX 21 21 0 -1
BITMAP
000000000080
000000000240
0006BFA40A00
006F901BBD00
01FC0002F800
07F00000F400
1FD00000E000
2FC00000D000
7F800000C000
7F4000000000
BF4000000500
BF400015BD00
FF400BEFF400
BF400007F400
BF400002F400
7F800002F400
3FC00002F400
1FE00003F800
0BF4000BB800
01FE40640400
001BFE400000
ENDCHAR
STARTCHAR H
ENCODING 72
SWIDTH 743 0
DWIDTH 21 0
BBX 21 30 0 -4
BITMAP
100000000000
2E4000000000
07FFFD000000
01FE00000140
01FC0005BD40
01FC02FFF400
01FC000BF400
01FC0003F400
00FC0003F400
00FC0003F000
00FC0002F000
00FC0002F000
00FC0002F000
00FC0003F000
00FC005BF000
00FFFFABF000
00FE4003F000
01FC0002F000
01FC0002F000
01FC0002F000
01FC0002F000
01FC0001F000
01FC0001F000
01FC0001F000
01FC0001F000
01FC0007F400
01FC00FFFE40
02FD00500100
6FFF40000000
940140000000
ENDCHAR
STARTCHAR I
ENCODING 73
SWIDTH 438 0
DWIDTH 12 0
BBX 16 29 -2 -5
BITMAP
1AA56AFE
05BFFE40
002FF800
001FF000
000FF000
000FE000
000FD000
000FD000
000FD000
000FC000
000FC000
000FC000
000F8000
000F8000
000F8000
000F8000
000F4000
000F4000
000F4000
000F4000
000F4000
000F4000
000F4000
000F4000
001F4000
002F8000
007FFE00
0B940000
64000000
ENDCHAR
STARTCHAR J
ENCODING 74
SWIDTH 628 0
DWIDTH 18 0
BBX 19 34 0 -7
BITMAP
0000000004
00000001B8
000005AF40
000BFFFC00
00006FF800
00000FF400
00000BF400
000007F400
000007F400
000003F400
000003F400
000003F400
000003F400
000003F000
000002F000
000002F000
000002F000
000002F000
000003E000
000003E000
000003E000
000003D000
000007D000
000007C000
0000078000
00000B8000
1BD00F4000
7FF41E0000
BFF42D0000
BFF03C0000
B040B40000
A001D00000
381B400000
0BF8000000
ENDCHAR
STARTCHAR K
ENCODING 75
SWIDTH 866 0
DWIDTH 24 0
BBX 25 26 0 -2
BITMAP
00004000000000
005B8040000000
BFFD00B9000000
07FC002FFF0000
03F8002E400000
02F80034000000
02F80090000000
02F80240000000
02F80600000000
01F81D00000000
01F87D00000000
01F8FF00000000
01FE7F40000000
01FC3F80000000
00F81FD0000D00
00F80FF0000700
00FC07F8000280
00FC02FD000180
00FC00FF400180
00FC003FD00280
00BC000FF90740
00BC0002FFFE00
00FC00006FE400
01FE0000000000
07FF4000000000
0001A000000000
ENDCHAR
STARTCHAR L
ENCODING 76
SWIDTH 660 0
DWIDTH 18 0
BBX 18 21 0 0
BITMAP
6940000000
06FFFF8000
00BFE40000
007FD00000
007FC00000
003FC00000
003F800000
003F800000
003F800000
003F400000
003F400000
003F400100
003F400200
003F400200
003F000240
003F000180
003F0002C0
003F0002D0
007F801BE0
06FFFFFFF0
2A55000000
ENDCHAR
STARTCHAR M
ENCODING 77
SWIDTH 1089 0
DWIDTH 31 0
BBX 32 22 0 -2
BITMAP
000000000001FF80
000000000003E500
000000000007C000
007EA400000F8000
0007FE00001F8000
0002FF80002FC000
0001DFD0006FC000
0000CBF0008FC000
0000C7F8018BD000
0000C2FD0207E000
0000C1FF4607E000
0000C0BFC803F000
0000C03FF802F400
0000C01FF002F800
0000C00FE001F800
00018007C001FC00
000180028000FE00
7D0240000000FF00
FF0600000000FFD0
FFED00000002FFFD
BFF40000002E5000
2F90000000000000
ENDCHAR
STARTCHAR N
ENCODING 78
SWIDTH 799 0
DWIDTH 22 0
BBX 23 27 0 -6
BITMAP
001000000064
FFFD000FFFA0
02FF4000BD00
01FFD0002C00
00EFF4002800
00CBFC001800
00C2FE001800
00C0FF801800
00C07FE01800
00C02FF41800
00C00BFD2400
008003FF6400
008001FFF400
008000BFF400
0080002FF400
0080000FF400
00800007F400
00800001F400
00800000B400
008000002000
00D000000000
00D000000000
00D000000000
01E000000000
07F400000000
BFFD00000000
001680000000
ENDCHAR
STARTCHAR O
ENCODING 79
SWIDTH 747 0
DWIDTH 21 0
BBX 21 21 0 1
BITMAP
0006FF900000
007D01BE0000
02E0002FD000
0BC0000BF400
1F800003FC00
2F400002FE00
7F000000FF00
BE000000FF40
BE000000BF80
BE0000007F80
FE0000007F80
BE0000007F80
BF0000007F80
7F0000007F40
7F4000007F00
2F800000BE00
1FD00000FC00
0BF00002F400
02F80007D000
007F406F4000
0006BFE40000
ENDCHAR
STARTCHAR P
ENCODING 80
SWIDTH 623 0
DWIDTH 17 0
BBX 18 25 0 -4
BITMAP
00016FF800
BFFFE07F40
01FF801FC0
007F400FD0
003F400FD0
002F400FD0
002F400FD0
002F400FC0
002F001F80
002F002F40
002F41BD00
002FBF9000
002F000000
002F000000
003F400000
003F400000
003F400000
003F400000
003F400000
007F400000
007F800000
00BFC00000
00FFD00000
02FFF40000
29405A9000
ENDCHAR
STARTCHAR Q
ENCODING 81
SWIDTH 804 0
DWIDTH 23 0
BBX 32 34 0 -12
BITMAP
0001BFE900000000
001E417F90000000
00B4000BF4000000
03D00001FD000000
0B800000BF400000
1F4000003FC00000
3E0000002FD00000
7E0000000FE00000
BD0000000FF00000
BD0000000BF00000
BD0000000BF00000
FD00000007F00000
BE00000007F00000
BE00000007F00000
BF00000007E00000
7F4000BF4BD00000
3F800242EBC00000
1FD00600BF800000
0FE005007F000000
07F809003F000000
01FE0900BF400000
002FE9079FC00000
0001BFE41FD00000
000000000FE00000
000000000BF00000
000000000BF40000
0000000007F80001
0000000003FC0002
0000000002FE0002
0000000001FF400A
0000000000FFE02C
00000000007FFFF8
00000000001FFFE0
000000000006FE40
ENDCHAR
STARTCHAR R
ENCODING 82
SWIDTH 869 0
DWIDTH 24 0
BBX 25 21 0 -1
BITMAP
0005AFE4000000
FFFF91BD000000
07FF003F400000
01FE002F800000
00FE002F800000
00BD002F800000
00BD002F800000
00BD007F400000
007D00FF000000
007D1BFE000000
007FFFF8000000
003D0FD0000000
003E0BE0000000
003E03F0000000
003E02F8000080
003E01FD000080
003E00BF400080
003F003FD000C0
00BF400FF90680
3FFFD002FFFF00
000064006FF800
ENDCHAR
STARTCHAR S
ENCODING 83
SWIDTH 517 0
DWIDTH 14 0
BBX 15 26 0 -3
BITMAP
00000020
000AF820
003D07E0
00B801D0
01F40090
01F40050
02F80050
01FD0000
00FF0000
00BF8000
003FE000
001FF400
0007FD00
0002FF00
0000BF80
00003FD0
40001FF0
80000BF4
900007F8
A00003F8
700003F8
780002F4
3D0003F0
3F4007E0
75E41F80
501BF900
ENDCHAR
STARTCHAR T
ENCODING 84
SWIDTH 659 0
DWIDTH 18 0
BBX 20 29 0 -4
BITMAP
7E940005BC
7FFFFFFFFD
7D000F41BD
38000F402C
38000F401C
28001F4008
18001F4004
0C001F4000
08001F4000
05001F4000
00001F4000
00001F4000
00002F4000
00002F4000
00002F4000
00002F4000
00002F4000
00002F4000
00002F4000
00003F4000
00003F4000
00003F4000
00003F8000
00007FC000
0000BFE400
0001FFFFD0
0007E40000
0029000000
0050000000
ENDCHAR
STARTCHAR U
ENCODING 85
SWIDTH 690 0
DWIDTH 19 0
BBX 21 21 0 1
BITMAP
000006000000
0001B9000000
05AFD0000000
FFFF80000000
0BFF03FAAA40
03FE001BE000
02FE0002D000
02FD0001D000
02FD0000C000
01FD0000C000
01FD0000C000
01FD0000C000
01FE0000C000
01FE0000C000
00FF00008000
00BF00018000
007F40024000
003FC0070000
001FF41D0000
0007FFF80000
0000BF900000
ENDCHAR
STARTCHAR V
ENCODING 86
SWIDTH 798 0
DWIDTH 22 0
BBX 25 22 0 0
BITMAP
00000100000000
0005A400000000
BFFFC000000140
01FFC000000B00
002FD000006C00
000FE0001BF000
0007F007FFD000
0003F8000F4000
0001FC000E0000
0000FE000D0000
00007F40180000
00003F80240000
00002FD0200000
00001FE0500000
00000BF4800000
000007FE800000
000003FF400000
000002FE000000
000000FD000000
000000BC000000
00000078000000
00000020000000
ENDCHAR
STARTCHAR W
ENCODING 87
SWIDTH 1120 0
DWIDTH 31 0
BBX 36 25 -1 -2
BITMAP
000000000000040000
0000000000000B9400
00000000000001BFFE
000000000000003F40
000000000000002D00
000080000000003800
000740000000007000
006F0000000000A000
16FE0000000000C000
AAFF00004000018000
00BF4002D000024000
003F8007F000060000
002FC00AF800090000
000FD018FD000C0000
000BE020BE00180000
000BF4507F40300000
0007F8C02FC0600000
0003FF401FE0C00000
0002FF000FFA800000
0000FD000BFF400000
0000BC0003FE000000
0000740002FD000000
0000200000FC000000
0000000000B4000000
000000000020000000
ENDCHAR
STARTCHAR X
ENCODING 88
SWIDTH 868 0
DWIDTH 24 0
BBX 25 23 0 -1
BITMAP
00000040000000
00016F80000000
FFFFFD00000000
01BFFD00280000
000BFD000BA400
0002FF000B4000
0000BF40080000
00003FC0140000
00001FE0200000
00000BF4800000
000003FE800000
000002FF400000
000002FF400000
000003BFC00000
00000A1FD00000
0000180BF00000
00007003F80000
0000D001FC0000
0003C000BE0000
006F80003F4000
3FFF80002FD000
005BD02FFFFD00
00006000001540
ENDCHAR
STARTCHAR Y
ENCODING 89
SWIDTH 796 0
DWIDTH 22 0
BBX 25 28 0 -3
BITMAP
00001000000000
005AD000000000
BFFE0000294000
07FD000007FF80
00FF0000074000
003F8000090000
001FE000180000
0007F400600000
0002FD00C00000
0000BF43400000
00003FEE000000
00001FFC000000
00000BF4000000
000007F0000000
000003F0000000
000002F0000000
000002F0000000
000002F0000000
000002F0000000
000002F4000000
000003F4000000
000003F4000000
000003F4000000
000007F4000000
00000BF8000000
00001FF8000000
0007FFFD000000
0000005B800000
ENDCHAR
STARTCHAR Z
ENCODING 90
SWIDTH 627 0
DWIDTH 18 0
BBX 17 24 1 -3
BITMAP
4000000000
7900164000
7FFFFF0000
7903FE0000
7003FD0000
5007FC0000
9007F80000
800BF40000
400FF00000
001FD00000
002FC00000
002F800000
003F400000
007F000400
00BE000500
00FD000600
01FC000600
02F8000700
03F4000B40
07F0000F80
0BE0007FC0
0BD05BFFC0
0FFE940140
1E50000000
ENDCHAR
STARTCHAR bracketleft
ENCODING 91
SWIDTH 344 0
DWIDTH 10 0
BBX 9 29 0 -6
BITMAP
07E940
0BD040
0BC000
0F8000
0F4000
0F4000
1F4000
1F4000
2F0000
2F0000
2F0000
3F0000
3F0000
3F0000
3E0000
7E0000
7E0000
7E0000
7E0000
7E0000
BE0000
BE0000
BE0000
BE0000
BE0000
BF0000
BF0000
7F8000
1BFF80
ENDCHAR
STARTCHAR backslash
ENCODING 92
SWIDTH 347 0
DWIDTH 10 0
BBX 10 31 0 -4
BITMAP
400000
900000
600000
300000
240000
280000
180000
0C0000
090000
060000
030000
034000
024000
018000
00C000
009000
00A000
007000
003400
002800
001800
000C00
000900
000A00
000700
000340
000280
000180
0000C0
000090
000050
ENDCHAR
STARTCHAR bracketright
ENCODING 93
SWIDTH 334 0
DWIDTH 9 0
BBX 9 26 0 -6
BITMAP
001800
1BFD00
14BD00
00BE00
007E00
007E00
007F00
007F00
007F00
007F00
003F40
003F40
003F40
003F80
003F80
003F80
003F80
003FC0
003FC0
003FC0
003FC0
007FC0
00BE40
02E400
1E0000
600000
ENDCHAR
STARTCHAR asciicircum
ENCODING 94
SWIDTH 658 0
DWIDTH 18 0
BBX 16 7 1 15
BITMAP
00024000
000BC000
002FE000
007FF800
02E0BF40
1F400BE4
6400006E
ENDCHAR
STARTCHAR underscore
ENCODING 95
SWIDTH 678 0
DWIDTH 19 0
BBX 17 2 1 -9
BITMAP
156AABFF40
6A95500000
ENDCHAR
STARTCHAR grave
ENCODING 96
SWIDTH 278 0
DWIDTH 8 0
BBX 6 6 1 21
BITMAP
7400
7D00
2E00
0B40
02C0
0090
ENDCHAR
STARTCHAR a
ENCODING 97
SWIDTH 527 0
DWIDTH 15 0
BBX 16 20 0 -3
BITMAP
01BE4000
0747D000
0901F000
0D00F800
0F40FC00
0FD0BC00
0FE0BD00
06D07D00
00007E00
01BFFE00
0F807F00
3E003F00
7D003F40
BC003F40
BD003F80
7F41EF81
2FFF5FC2
0BF80FE6
00000BFD
000002F8
ENDCHAR
STARTCHAR b
ENCODING 98
SWIDTH 582 0
DWIDTH 16 0
BBX 18 32 -2 -1
BITMAP
0014000000
0034000000
00B4000000
17F4000000
FFF4000000
02F4000000
01F4000000
00F4000000
00F8000000
00F8000000
00F8000000
00B8000000
00B8000000
00B8000000
00BC000000
00BC000000
00BC000000
00BC1BF800
00BC507F40
007E001FC0
007D000FD0
007D000BE0
007E000BE0
007E0007E0
007E000BE0
007F000BE0
007F000FC0
007F401F80
007FD07E00
00BFFFE400
02F9500000
0E40000000
ENDCHAR
STARTCHAR c
ENCODING 99
SWIDTH 437 0
DWIDTH 12 0
BBX 12 15 0 2
BITMAP
006FE0
0247F8
0A03FC
1C02FC
3C01F4
780000
780000
B80008
BC0009
7C0006
7E0006
3F400A
1FE02D
07FFF4
01BF90
ENDCHAR
STARTCHAR d
ENCODING 100
SWIDTH 523 0
DWIDTH 15 0
BBX 15 27 0 1
BITMAP
00000180
00000B80
0000BF80
0007AF80
00002F80
00001F80
00001F80
00001F80
00001F80
00001F80
00001F80
00001F40
00001F40
00001F40
00001F40
00001F40
01BFAF40
0BE01F40
2F400F40
7F000F40
BE000F40
BE000F40
BE000F40
7F000F40
3F401F40
1FD07FD0
02BFEAA8
ENDCHAR
STARTCHAR e
ENCODING 101
SWIDTH 434 0
DWIDTH 12 0
BBX 12 15 0 1
BITMAP
006FE0
02E0B8
0B803D
1F402E
3F002E
7E003E
7E00BC
BE02F4
BFFE80
7F0009
7F0006
2F4006
1FC009
07F418
00BFA0
ENDCHAR
STARTCHAR f
ENCODING 102
SWIDTH 299 0
DWIDTH 8 0
BBX 15 36 -1 -5
BITMAP
0000BE40
000281D0
000A00B0
000C00F0
002802F4
00381FF0
00347FE0
00747FD0
00B42F40
00B40000
00B40000
00F81400
02FFA400
AFF80000
01F40000
01F40000
01F80000
01F80000
01F80000
01F80000
00F80000
00F80000
00F80000
00F80000
00F80000
00F80000
00F80000
00FC0000
00FC0000
00FC0000
00FC0000
00FC0000
01FE4000
02FFF400
1A500000
14000000
ENDCHAR
STARTCHAR g
ENCODING 103
SWIDTH 567 0
DWIDTH 16 0
BBX 18 28 -1 -11
BITMAP
0000006F40
0000014FD0
0000010FE0
006FED0FE0
02FD1F4780
07F407D000
0BE003E000
0FE003E000
0FE003E000
0BE007E000
07F00BC000
02F81F4000
007FF90000
00A4000000
01D0000000
01F4000000
002FE90000
00B85BE000
03E001FC00
0FC0007E00
2F40003F00
3F40002F00
7F40002F00
7F40002E00
3F80003C00
2FD000B000
0BF8068000
01BFE80000
ENDCHAR
STARTCHAR h
ENCODING 104
SWIDTH 566 0
DWIDTH 16 0
BBX 17 30 -1 0
BITMAP
0006000000
002D000000
06FD000000
7AFC000000
00BC000000
007C000000
007C000000
0078000000
0078000000
0078000000
00B8000000
00B4000000
00B4000000
00B4000000
00B4000000
00F4000000
00F47E4000
00F64BD000
00F903F000
01FC02F400
01F802F400
01F402F400
01F402F800
02F002F400
02F002F400
02F002F400
03F002F400
0BF002F800
FFF40BEB80
006E140000
ENDCHAR
STARTCHAR i
ENCODING 105
SWIDTH 301 0
DWIDTH 8 0
BBX 8 19 0 2
BITMAP
02E0
07F0
02E0
0000
0014
05F4
7FF4
0BF0
07F0
07E0
07E0
07E0
07E0
07D0
07D0
07D0
07D0
0BE4
7EFF
ENDCHAR
STARTCHAR j
ENCODING 106
SWIDTH 367 0
DWIDTH 10 0
BBX 13 32 -3 -14
BITMAP
0001E000
0002F400
0001E000
00000000
00000000
00001800
006FFE00
0007FE00
0001FF00
0000BF00
00007F40
00003F40
00002F40
00001F80
00001F80
00000F80
00000F80
00000F80
00000B80
00000B80
00000B80
00000B40
1B900B40
7FE00F40
BFE00F00
FFD00E00
F9001D00
E0002C00
D0007400
A000A000
29078000
06F90000
ENDCHAR
STARTCHAR k
ENCODING 107
SWIDTH 567 0
DWIDTH 16 0
BBX 18 31 -2 -3
BITMAP
0008000000
007C000000
16FC000000
BFFC000000
00BC000000
007C000000
007C000000
003C000000
003D000000
003D000000
003D000000
003D000000
003D000000
003D1E4000
003D07FE00
003D029000
003D0A0000
003E180000
003EB40000
003FF80000
003FBC0140
003E3D0080
002F2F0050
002F1F8060
002F0BE0A0
002F02FFC0
002F40BF40
002F400000
003F800000
007FD00000
1AFAFF4000
ENDCHAR
STARTCHAR l
ENCODING 108
SWIDTH 354 0
DWIDTH 10 0
BBX 12 26 -2 0
BITMAP
000200
000700
001F00
007F00
02FF00
1FFF00
747F00
003F00
003F40
003F40
002F40
002F40
002F40
001F40
001F80
001F80
000F80
000F80
000F80
000B80
000BC0
000BC0
000BC0
000FE4
01FFFE
004000
ENDCHAR
STARTCHAR m
ENCODING 109
SWIDTH 708 0
DWIDTH 20 0
BBX 20 12 0 2
BITMAP
01D0000000
6FE2F82F80
07EBFDBFE0
03F87F87F0
02F03F03F0
02F02E02F0
01E03E03F0
01F07E03E0
02F1FF8BE0
2FFD014BF0
0005000078
0000000005
ENDCHAR
STARTCHAR n
ENCODING 110
SWIDTH 584 0
DWIDTH 16 0
BBX 16 18 0 0
BITMAP
00800000
01C00000
07D02F90
2FD0BFF4
47E247F8
03E501FC
02F800FC
02F800BC
01F800BC
00F400BC
00F400BC
00B400B8
00B400F8
007800F4
007802F4
00BD3FF4
0BFF41B8
0001400A
ENDCHAR
STARTCHAR o
ENCODING 111
SWIDTH 503 0
DWIDTH 14 0
BBX 14 13 0 2
BITMAP
006FE400
07E07D00
1F801F40
2F400FC0
3F400BD0
7F0007D0
7F0007D0
7F4007D0
3F4007D0
2F8007C0
0FD00B40
07F42D00
006FE000
ENDCHAR
STARTCHAR p
ENCODING 112
SWIDTH 509 0
DWIDTH 14 0
BBX 14 27 0 -12
BITMAP
00200000
00F00000
0BF1BE00
6BF51F80
02F40BD0
02F007E0
02F007E0
02E003E0
02E003E0
02E007D0
02F007C0
02F00F80
02F82E00
02FBF800
02F00000
02F00000
02F00000
02F00000
02F00000
02F00000
03F00000
03F40000
03F40000
03F40000
0BFC0000
6FFF4000
00168000
ENDCHAR
STARTCHAR q
ENCODING 113
SWIDTH 505 0
DWIDTH 14 0
BBX 14 26 0 -12
BITMAP
06FE3F80
1FD1BE00
3F007D00
7E003D00
BE003D00
BE003D00
7E003D00
3F407D00
1FD0BD00
06F97D00
00007D00
00007D00
00007D00
00007D00
00007D00
00007D00
00007D00
00007D00
00007D00
00007D00
00007D00
00007D00
0000BD00
003FFE00
00005B90
00000060
ENDCHAR
STARTCHAR r
ENCODING 114
SWIDTH 414 0
DWIDTH 12 0
BBX 14 19 0 0
BITMAP
0000BE00
009282C0
06D602D0
7FDC1FD0
07E82FC0
03F81F40
03F40000
03F40000
02F40000
02F40000
02F40000
02F40000
01F80000
01F80000
01FC0000
01FC0000
01FD0000
06FFE000
2A500000
ENDCHAR
STARTCHAR s
ENCODING 115
SWIDTH 482 0
DWIDTH 14 0
BBX 15 21 -1 -3
BITMAP
00000080
0006F9C0
001E0780
003C0280
007C0140
007D0140
003F0000
001FC000
000BF000
0002FD00
0000FF40
00003FC0
00101FE0
006007F0
00D003F4
02C002F4
07C002F4
1FC002F4
60E003E0
00281F80
0006F900
ENDCHAR
STARTCHAR t
ENCODING 116
SWIDTH 434 0
DWIDTH 12 0
BBX 12 22 0 0
BITMAP
000300
000740
000B00
000E00
002E00
007D00
01FFF4
6FFE00
02F800
03F400
03F000
07E000
0BD000
0BD000
0FD000
0FC000
0FC02D
0BD02E
0BE00E
03F009
01F918
006FE0
ENDCHAR
STARTCHAR u
ENCODING 117
SWIDTH 744 0
DWIDTH 21 0
BBX 21 15 0 1
BITMAP
002000020000
00B0006F4000
07F40BFF4000
7BF4002F4000
01F8001F4000
00F8000F8000
00FC000F8000
00BC001F8000
00BD001F8000
007E002BC000
007F4037D000
003FD1A3FB80
002FFFD29400
000BFF400000
0002F9000000
ENDCHAR
STARTCHAR v
ENCODING 118
SWIDTH 600 0
DWIDTH 17 0
BBX 17 17 0 -1
BITMAP
000A000000
01B8000000
1BF8000000
57FC000000
01FD07FE40
00FE007400
007F007000
003F405000
001F808000
000FD08000
000BE14000
0003F20000
0002FA0000
0000FD0000
0000BC0000
0000380000
0000240000
ENDCHAR
STARTCHAR w
ENCODING 119
SWIDTH 745 0
DWIDTH 21 0
BBX 21 15 0 -1
BITMAP
000500001680
006800017D00
06F402403400
BFF403803000
07F807D06000
03F80FE09000
02FC1BF08000
01FD22F88000
00FE21FD8000
00BF90BF4000
007FC03F0000
003F802E0000
001F40090000
000E00000000
000900000000
ENDCHAR
STARTCHAR x
ENCODING 120
SWIDTH 548 0
DWIDTH 15 0
BBX 16 17 0 1
BITMAP
00019000
006E0000
FFFD0000
0BFD1400
01FE1BF9
00BF0380
003F4A00
002F9800
000FF000
000BE000
0003F000
0007F400
0008F800
0020BD00
01E07F40
1E64BFF8
00079000
ENDCHAR
STARTCHAR y
ENCODING 121
SWIDTH 659 0
DWIDTH 18 0
BBX 18 28 0 -13
BITMAP
0006400000
006D000050
17F40BFFE0
7FE001BFC0
0BE0003F80
0BE0002F80
07F0002F80
03F0002F40
03F4002F40
02F4003F40
01FC007F40
00FD00AF00
007F42AF00
002FFF2E00
0007F82E00
0000002D00
0000002D00
0000003C00
0000003800
0000007400
006E007000
00FF80A000
026F80D000
020F42C000
0200034000
02400A0000
00D0780000
006F900000
ENDCHAR
STARTCHAR z
ENCODING 122
SWIDTH 460 0
DWIDTH 13 0
BBX 13 16 0 0
BITMAP
3A500000
3FABFC00
7800F800
7002F400
6003F000
500BD000
401FC000
002F4000
007F0000
00FD0000
02FC0040
07F80080
0BF001C0
1FE05BC0
3FFFFF80
65400000
ENDCHAR
STARTCHAR braceleft
ENCODING 123
SWIDTH 460 0
DWIDTH 13 0
BBX 13 36 0 -9
BITMAP
0002F900
000B4640
001E0000
002E0000
003E0000
003E0000
003F0000
003F0000
002F4000
002F8000
002F8000
002F8000
002F8000
002F8000
007F0000
01FD0000
1BE00000
7E000000
07900000
00F40000
007C0000
003D0000
002F0000
002F0000
002F4000
002F4000
002F4000
002F4000
003F4000
003F4000
003F4000
003F4040
002F8080
001FD240
000FFF00
0002F900
ENDCHAR
STARTCHAR bar
ENCODING 124
SWIDTH 368 0
DWIDTH 10 0
BBX 2 29 4 -5
BITMAP
80
90
90
90
90
90
90
90
90
90
90
50
50
60
60
60
60
60
60
20
20
20
30
30
30
30
30
20
20
ENDCHAR
STARTCHAR braceright
ENCODING 125
SWIDTH 476 0
DWIDTH 13 0
BBX 13 30 0 -7
BITMAP
07F90000
2FFF4000
747FC000
902FC000
002FD000
001FD000
001FD000
000FD000
000FD000
000BD000
0007E000
0001F940
00001B40
00001D00
00003C00
00007C00
00007D00
00007E00
00003F00
00002F00
00002F40
00001F80
00000F80
00000F80
00000F80
00000F40
00000F00
00001D00
0001B400
001E8000
ENDCHAR
STARTCHAR asciitilde
ENCODING 126
SWIDTH 733 0
DWIDTH 21 0
BBX 18 5 1 5
BITMAP
0000000020
02FE4000A0
0FFFF906D0
2816FFFF40
50001BF800
ENDCHAR
STARTCHAR nonbreakingspace
ENCODING 160
SWIDTH 270 0
DWIDTH 8 0
BBX 1 1 0 0
BITMAP
00
ENDCHAR
STARTCHAR exclamdown
ENCODING 161
SWIDTH 247 0
DWIDTH 7 0
BBX 5 30 1 -3
BITMAP
2D00
BF00
BF00
3D00
0000
0000
0000
0400
0C00
1C00
1D00
1D00
1E00
1E00
1E00
1F00
2F00
2F00
2F00
2F40
3F40
3F40
3F40
7F40
7F40
7F40
7F40
7F40
7F00
2E00
ENDCHAR
STARTCHAR cent
ENCODING 162
SWIDTH 799 0
DWIDTH 22 0
BBX 14 24 4 -6
BITMAP
00500000
00200000
00200000
002BF800
01F81B40
07D407C0
0F8807D0
1F080FD0
3F091FD0
3E050B80
7E020000
7E020000
7F024000
7F014020
3F808050
2FD080C0
0BF49740
02FFFD00
006FF400
00003000
00002400
00001800
00000C00
00000500
ENDCHAR
STARTCHAR sterling
ENCODING 163
SWIDTH 799 0
DWIDTH 22 0
BBX 16 26 4 -4
BITMAP
001BF800
00781F40
01E00B80
03C00FC0
0BC03FD0
0BC07FC0
0FC0BF80
0FD02E00
0FE00000
0FF00000
0BF40000
07FEA000
1BFD0000
A6FE0000
01FF0000
00BF4000
007F8000
002FC000
001FC000
000F8014
000F8005
1BEF4005
641FE409
901DBFFC
60601BE0
2F400000
ENDCHAR
STARTCHAR currency
ENCODING 164
SWIDTH 732 0
DWIDTH 21 0
BBX 17 20 2 1
BITMAP
0000024000
0000070000
40000E0000
E06FFD0000
3B901B4000
1D0001D000
280000A000
7000007000
A000003000
A000003000
A000007000
A000009000
700001C000
3800074000
1E406F8000
0BFF91E000
0F00002800
1D00000B40
2C00000140
3400000000
ENDCHAR
STARTCHAR yen
ENCODING 165
SWIDTH 799 0
DWIDTH 22 0
BBX 21 29 1 -4
BITMAP
0001B0000000
BFFFC0000640
07FF8001B800
00FF807FD000
007FC0038000
002FD0030000
000FF0050000
0007F8080000
0002FC180000
0001FE240000
0000FFB00000
00007FE00000
00003FD00000
00002FD00000
00001FD00000
003EBFFFFE00
00001FC00000
00001FC00000
00006FFFC000
002FFFD00000
00001FC00000
00001F800000
00001FC00000
00001FC00000
00002FC00000
00003FE40000
0000BFFF4000
000BE5000000
002900000000
ENDCHAR
STARTCHAR brokenbar
ENCODING 166
SWIDTH 341 0
DWIDTH 10 0
BBX 2 32 4 -7
BITMAP
80
90
90
90
90
90
90
90
90
90
90
90
00
00
00
90
90
90
90
90
90
90
90
90
90
90
90
90
90
90
90
80
ENDCHAR
STARTCHAR section
ENCODING 167
SWIDTH 546 0
DWIDTH 15 0
BBX 13 32 1 -9
BITMAP
002FE400
01E46D00
07801F40
0B401F80
0F402F80
1F802F80
1FD01F40
0FE00000
0BF80000
03FF4000
07FFD000
1D2FF800
3807FE00
7800BF40
BC001F80
BE0007C0
7F8003C0
2FF40280
0BFD0300
02FF8900
007FF400
000BF800
0001FD00
00002E00
00000F00
00000740
00000340
00000300
01F00200
02F80500
02FE1400
00BF9000
ENDCHAR
STARTCHAR dieresis
ENCODING 168
SWIDTH 393 0
DWIDTH 11 0
BBX 7 3 2 18
BITMAP
2D38
7E7C
2D78
ENDCHAR
STARTCHAR copyright
ENCODING 169
SWIDTH 1023 0
DWIDTH 29 0
BBX 27 25 1 -4
BITMAP
00001BFF940000
0006A4016E4000
0029000001E000
00A00000002D00
02800001000B00
06000005000380
0C001BFD0001D0
1800B81D0000E0
3402E0050000B0
3003D002000070
6007C001000074
600BC000000074
A00BD000800070
A007E000800070
6003F0018000B0
7002FD070000E0
7400BFFD0001D0
38001BE40002C0
2D000000000780
0F000000001F00
07C00000007D00
02F4000006F400
007F9005BF9000
000BFFFFFD0000
00006FFE900000
ENDCHAR
STARTCHAR ordfeminine
ENCODING 170
SWIDTH 558 0
DWIDTH 16 0
BBX 14 14 1 9
BITMAP
07F80000
2C1E0000
780B4000
BC078000
BD03C000
7D07C000
02BFC000
0F43D000
2D03D080
3C03D090
7C07E090
3E0AF0C0
2FF9FF80
0BE06E00
ENDCHAR
STARTCHAR guillemotleft
ENCODING 171
SWIDTH 608 0
DWIDTH 17 0
BBX 15 25 1 -7
BITMAP
00000010
00000020
00000030
00002060
000090A0
0001C0D0
000381C0
000B4280
002E0780
00BC0F40
07F42F00
2FE0BF00
7FD07F80
2FE02FC0
0BF40BE0
02FC03F0
00BE01F0
002F40F4
000B8074
0003D038
0001E028
0000B408
00003800
00001C00
00000500
ENDCHAR
STARTCHAR logicalnot
ENCODING 172
SWIDTH 616 0
DWIDTH 17 0
BBX 15 6 1 6
BITMAP
7FFFAAF8
0000002C
00000028
00000028
00000028
00000010
ENDCHAR
STARTCHAR uni00AD
ENCODING 173
SWIDTH 436 0
DWIDTH 12 0
BBX 10 2 1 5
BITMAP
140040
6FFFD0
ENDCHAR
STARTCHAR registered
ENCODING 174
SWIDTH 1048 0
DWIDTH 29 0
BBX 27 26 1 -6
BITMAP
00001AFFA40000
0002E5005B4000
001E0000006400
00A00000000900
028BFFFE400240
0701BD0BE00080
0D007C03F00060
28003C02F40020
34003C02F40014
30003C03F00008
70003C07D00008
60003C6F400008
A0003FFC000008
A0003DBC008008
B0003D7E005008
70003D2F405008
74007E0FD09018
3800BF07FFC024
2C01FF80BE4020
1D1FABE4000050
0B000014000080
02C00000000200
00B40000001D00
002E000000A000
0006E5005B4000
00001BFFA40000
ENDCHAR
STARTCHAR macron
ENCODING 175
SWIDTH 382 0
DWIDTH 11 0
BBX 8 1 1 22
BITMAP
6BFF
ENDCHAR
STARTCHAR degree
ENCODING 176
SWIDTH 346 0
DWIDTH 10 0
BBX 8 7 1 20
BITMAP
0BE0
3FF8
742C
A00D
600C
3428
1BE0
ENDCHAR
STARTCHAR plusminus
ENCODING 177
SWIDTH 580 0
DWIDTH 16 0
BBX 14 10 1 4
BITMAP
00020000
00030000
00030000
000B0000
2FEBAA90
00020000
00020000
00020000
00000000
7FEAA900
ENDCHAR
STARTCHAR twosuperior
ENCODING 178
SWIDTH 365 0
DWIDTH 10 0
BBX 9 14 1 11
BITMAP
06F900
147F00
102F40
001F40
002F00
003E00
007800
01E000
0A4000
B80000
7D0140
0BED00
02F800
00E000
ENDCHAR
STARTCHAR threesuperior
ENCODING 179
SWIDTH 371 0
DWIDTH 10 0
BBX 10 15 0 10
BITMAP
000400
2FFC00
2FF400
146000
108000
01E800
01FF40
001FC0
0007E0
1003E0
5003E0
5003E0
6007D0
281F40
0BF900
ENDCHAR
STARTCHAR acute
ENCODING 180
SWIDTH 234 0
DWIDTH 7 0
BBX 4 6 1 21
BITMAP
07
0F
1D
38
74
50
ENDCHAR
STARTCHAR mu
ENCODING 181
SWIDTH 634 0
DWIDTH 18 0
BBX 17 25 1 -10
BITMAP
B800000000
F800010000
F8007E0000
B8003F0000
B8003F0000
B8002F0000
BC001F0000
BC001F4600
BD001F4240
BE002F8180
BF402F8080
BDD097D280
BC6F42FF40
BC0000BD00
7D00000000
7D00000000
7D00000000
7D00000000
7E00000000
7E00000000
7F00000000
7F00000000
7F00000000
3F00000000
1000000000
ENDCHAR
STARTCHAR paragraph
ENCODING 182
SWIDTH 707 0
DWIDTH 20 0
BBX 20 33 0 -10
BITMAP
0000000068
0000005BD0
005ABFFF40
07FFD03E00
2FFFC03D00
7FFFC03D00
BFFF803C00
FFFF803C00
FFFF803C00
FFFF803C00
BFFF803C00
3FFF803800
1BFF803C00
01FF803C00
001F807C00
000F807C00
000B807C00
000B807C00
000B807C00
000BC07C00
0007C07D00
0007C07D00
0007C07D00
0007C07E00
0007D07E00
0007D07F40
0007D07FD0
0007D07FBE
0007D00000
000BD00000
001FD00000
01B9400000
0E40000000
ENDCHAR
STARTCHAR periodcentered
ENCODING 183
SWIDTH 238 0
DWIDTH 7 0
BBX 5 4 1 8
BITMAP
2E00
BF40
BF40
2E00
ENDCHAR
STARTCHAR cedilla
ENCODING 184
SWIDTH 332 0
DWIDTH 9 0
BBX 7 9 1 -7
BITMAP
0100
0200
0640
07E0
02F8
00B8
4078
60F4
1FD0
ENDCHAR
STARTCHAR onesuperior
ENCODING 185
SWIDTH 336 0
DWIDTH 9 0
BBX 8 13 1 12
BITMAP
0020
0070
01F0
0BE0
65E0
01E0
01E0
01E0
01E0
02F0
07F0
AFF8
006A
ENDCHAR
STARTCHAR ordmasculine
ENCODING 186
SWIDTH 503 0
DWIDTH 14 0
BBX 13 13 1 8
BITMAP
02FE4000
1807F000
2000FC00
A0007E00
D0002F00
D0001F00
E0000F40
E0000F40
B4000B00
78000E00
2E001D00
0B907400
01BF9000
ENDCHAR
STARTCHAR guillemotright
ENCODING 187
SWIDTH 778 0
DWIDTH 22 0
BBX 20 26 1 -8
BITMAP
0001400000
0000C00000
4000A00000
5000340000
70001D0000
38000B4000
1F0003E000
0BD000F900
02FD002F80
00BFE50BF4
001FFF47FD
0002FD1FF4
0007E07F80
000F80FE00
002E02F400
007807D000
01E00F8000
02C01E0000
07403D0000
0A00780000
0C00B40000
1800A00000
1000D00000
0000C00000
0000800000
0000400000
ENDCHAR
STARTCHAR onequarter
ENCODING 188
SWIDTH 876 0
DWIDTH 25 0
BBX 23 27 1 -1
BITMAP
000000000600
002000000D00
007000002800
01F000007000
0BE00000D000
65E000028000
01E0000B0000
01E0001D0000
01E000380000
01E000A00000
02F001C05000
07F00740A000
AFF80E00E000
006A2C02E000
00007403E000
0000D009F000
00028009F000
00070020F050
001D0060F490
00280080F5D0
00A00180BFD0
01C003ABFFD0
03400154BC00
0A000000BD00
1C000000BF40
24000006FFFC
000000054000
ENDCHAR
STARTCHAR onehalf
ENCODING 189
SWIDTH 762 0
DWIDTH 21 0
BBX 20 27 1 -1
BITMAP
0000000006
002000000D
0070000028
01F0000070
0BE00000D0
65E0000280
01E0000B00
01E0001D00
01E0003800
01E000A000
02F001C000
07F0074000
AFF80E1BE0
006A2C91FC
00007440BC
0000D000BC
00028000BC
00070000F4
001D0002E0
0028000780
00A0002900
01C006D000
034001F405
0A00007FB4
1C00000FD0
2400000380
0000000100
ENDCHAR
STARTCHAR threequarters
ENCODING 190
SWIDTH 922 0
DWIDTH 26 0
BBX 26 27 0 -1
BITMAP
00000000002400
00040000006000
2FFC000000D000
2FF40000028000
14600000070000
108000001D0000
01E80000380000
01FF4000A00000
001FC001C00000
0007E003400000
1003E00A020000
5003E02C060000
5003E0740B0000
6007D0D01F0000
281F42802F0000
0BF907005F4000
00001D008F4000
000038014B4100
0000A0020B8500
0001C0050B9E00
0003400C07FE00
000A002EAFFE00
001C001547D000
0034000007E000
0090000007F800
018000006FFFD0
00000000540000
ENDCHAR
STARTCHAR questiondown
ENCODING 191
SWIDTH 571 0
DWIDTH 16 0
BBX 16 25 0 -3
BITMAP
0002E000
0007F800
000BF800
0007F800
0002E000
00000000
00024000
00009000
00005000
00009000
0001C000
00078000
002E0000
00BC1BD0
03F43FF8
0FF03FFC
2FE03FFD
3FD01FFD
7FD001FD
7FD0007D
7FD0003C
3FE00034
1FF400A0
07FD0280
006FF900
ENDCHAR
STARTCHAR Agrave
ENCODING 192
SWIDTH 784 0
DWIDTH 22 0
BBX 23 33 0 -3
BITMAP
00B400000000
00BC00000000
002E00000000
000F40000000
0003C0000000
000090000000
000000000000
000000000000
000007000000
0001BF400000
003EFF800000
00007FC00000
0000ABD00000
000097E00000
0000C3F00000
000182F40000
000241F80000
000301FC0000
000600FD0000
000A40BE0000
000DB9BF4000
001806FF8000
0034007FC000
0070002FD000
00A0000FE000
00D0000BF000
02C00007F400
FFD00007F800
06F80003FC00
00140002FE00
00000001FF80
00000007FFF4
000000794000
ENDCHAR
STARTCHAR Aacute
ENCODING 193
SWIDTH 784 0
DWIDTH 22 0
BBX 23 33 0 -3
BITMAP
000002800000
000007400000
00000F000000
00001D000000
000028000000
000020000000
000000000000
000000000000
000007000000
0001BF400000
003EFF800000
00007FC00000
0000ABD00000
000097E00000
0000C3F00000
000182F40000
000241F80000
000301FC0000
000600FD0000
000A40BE0000
000DB9BF4000
001806FF8000
0034007FC000
0070002FD000
00A0000FE000
00D0000BF000
02C00007F400
FFD00007F800
06F80003FC00
00140002FE00
00000001FF80
00000007FFF4
000000794000
ENDCHAR
STARTCHAR Acircumflex
ENCODING 194
SWIDTH 784 0
DWIDTH 22 0
BBX 23 33 0 -3
BITMAP
000008000000
00002E000000
00007B800000
0000D2E00000
000240780000
0009001B0000
001400000000
000000000000
000007000000
0001BF400000
003EFF800000
00007FC00000
0000ABD00000
000097E00000
0000C3F00000
000182F40000
000241F80000
000301FC0000
000600FD0000
000A40BE0000
000DB9BF4000
001806FF8000
0034007FC000
0070002FD000
00A0000FE000
00D0000BF000
02C00007F400
FFD00007F800
06F80003FC00
00140002FE00
00000001FF80
00000007FFF4
000000794000
ENDCHAR
STARTCHAR Atilde
ENCODING 195
SWIDTH 784 0
DWIDTH 22 0
BBX 23 32 0 -3
BITMAP
000790000000
0005F4000000
00107E140000
00101FF40000
000007E00000
000000000000
000000000000
000007000000
0001BF400000
003EFF800000
00007FC00000
0000ABD00000
000097E00000
0000C3F00000
000182F40000
000241F80000
000301FC0000
000600FD0000
000A40BE0000
000DB9BF4000
001806FF8000
0034007FC000
0070002FD000
00A0000FE000
00D0000BF000
02C00007F400
FFD00007F800
06F80003FC00
00140002FE00
00000001FF80
00000007FFF4
000000794000
ENDCHAR
STARTCHAR Adieresis
ENCODING 196
SWIDTH 784 0
DWIDTH 22 0
BBX 23 31 0 -3
BITMAP
0002D0000000
000BF1F40000
000BF1F40000
0007D1F00000
000000000000
000000000000
000007000000
0001BF400000
003EFF800000
00007FC00000
0000ABD00000
000097E00000
0000C3F00000
000182F40000
000241F80000
000301FC0000
000600FD0000
000A40BE0000
000DB9BF4000
001806FF8000
0034007FC000
0070002FD000
00A0000FE000
00D0000BF000
02C00007F400
FFD00007F800
06F80003FC00
00140002FE00
00000001FF80
00000007FFF4
000000794000
ENDCHAR
STARTCHAR Aring
ENCODING 197
SWIDTH 784 0
DWIDTH 22 0
BBX 23 33 0 -3
BITMAP
00006E400000
0000D1D00000
000280600000
000280600000
0002D1E00000
0001FFC00000
00006E400000
000000000000
000007000000
0001BF400000
003EFF800000
00007FC00000
0000ABD00000
000097E00000
0000C3F00000
000182F40000
000241F80000
000301FC0000
000600FD0000
000A40BE0000
000DB9BF4000
001806FF8000
0034007FC000
0070002FD000
00A0000FE000
00D0000BF000
02C00007F400
FFD00007F800
06F80003FC00
00140002FE00
00000001FF80
00000007FFF4
000000794000
ENDCHAR
STARTCHAR AE
ENCODING 198
SWIDTH 1172 0
DWIDTH 33 0
BBX 33 28 0 -4
BITMAP
0000000000006E0000
00000000001BFE0000
000000016BE91D0000
000007FFFF00090000
00000017FE00050000
000000037F00040000
000000073F00040000
000000093F00000000
0000000C3F40140000
000000182F40200000
000000242F80300000
000000202F81F00000
000000502FFFF40000
000000C02FD0240000
000001802FC0140200
000003402FD0080300
000007FFFFD0000300
00000A401FE0000700
00001C001FE0000B40
000024000FF0001F40
000070000FF4007F80
000090000FF806FE80
0001C0000FFEBA4000
000340000FFE400000
000B00001FD0000000
002E00003D00000000
06FE0001E000000000
BEAAF0010000000000
ENDCHAR
STARTCHAR Ccedilla
ENCODING 199
SWIDTH 742 0
DWIDTH 21 0
BBX 21 36 0 -12
BITMAP
000000000400
000000001400
000000002400
000000002400
0006BFEAB400
002F901BF800
01FD0001F800
07F400003C00
0FE000000D00
2FC000000500
3F8000000000
7F8000000000
BF4000000000
BF4000000000
BF4000000000
FF4000000000
BF4000000040
BF8000000140
BF8000000140
7FC000000240
3FD000000200
2FE000000200
0FF400000900
07FD00001800
01FF40006000
002FE4068000
0001BFE90000
000002000000
000002000000
000007900000
000007F40000
000001F80000
000000BC0000
000040780000
000020B40000
00001BD00000
ENDCHAR
STARTCHAR Egrave
ENCODING 200
SWIDTH 557 0
DWIDTH 16 0
BBX 16 33 0 -3
BITMAP
07400000
07C00000
02E00000
00B40000
003C0000
00090000
00000000
55556AF0
2FF94070
0FF40030
07F40020
07F40020
03F40000
03F40000
02F40000
02F80000
02F80400
01F81800
01FFF400
01F86400
00F81400
00F81400
00FC0000
00FC0000
00BC0000
00BC0000
00BC0000
00BD0001
007D0006
007D0009
00BE002D
7FFFEBFC
000156A8
ENDCHAR
STARTCHAR Eacute
ENCODING 201
SWIDTH 557 0
DWIDTH 16 0
BBX 16 33 0 -3
BITMAP
00001C00
00003C00
0000B400
0000E000
0001C000
00024000
00000000
55556AF0
2FF94070
0FF40030
07F40020
07F40020
03F40000
03F40000
02F40000
02F80000
02F80400
01F81800
01FFF400
01F86400
00F81400
00F81400
00FC0000
00FC0000
00BC0000
00BC0000
00BC0000
00BD0001
007D0006
007D0009
00BE002D
7FFFEBFC
000156A8
ENDCHAR
STARTCHAR Ecircumflex
ENCODING 202
SWIDTH 557 0
DWIDTH 16 0
BBX 16 34 0 -3
BITMAP
00024000
0007C000
000EF000
00287C00
00601F40
018002D0
02000000
00000000
55556AF0
2FF94070
0FF40030
07F40020
07F40020
03F40000
03F40000
02F40000
02F80000
02F80400
01F81800
01FFF400
01F86400
00F81400
00F81400
00FC0000
00FC0000
00BC0000
00BC0000
00BC0000
00BD0001
007D0006
007D0009
00BE002D
7FFFEBFC
000156A8
ENDCHAR
STARTCHAR Edieresis
ENCODING 203
SWIDTH 557 0
DWIDTH 16 0
BBX 16 31 0 -3
BITMAP
00B80000
01FD2D00
01FC7E00
00B83D00
00000000
55556AF0
2FF94070
0FF40030
07F40020
07F40020
03F40000
03F40000
02F40000
02F80000
02F80400
01F81800
01FFF400
01F86400
00F81400
00F81400
00FC0000
00FC0000
00BC0000
00BC0000
00BC0000
00BD0001
007D0006
007D0009
00BE002D
7FFFEBFC
000156A8
ENDCHAR
STARTCHAR Igrave
ENCODING 204
SWIDTH 438 0
DWIDTH 12 0
BBX 16 36 -2 -5
BITMAP
00740000
007D0000
002F0000
000B8000
0002C000
00009000
00000000
1AA56AFE
05BFFE40
002FF800
001FF000
000FF000
000FE000
000FD000
000FD000
000FD000
000FC000
000FC000
000FC000
000F8000
000F8000
000F8000
000F8000
000F4000
000F4000
000F4000
000F4000
000F4000
000F4000
000F4000
000F4000
001F4000
002F8000
007FFE00
0B940000
64000000
ENDCHAR
STARTCHAR Iacute
ENCODING 205
SWIDTH 438 0
DWIDTH 12 0
BBX 16 36 -2 -5
BITMAP
00000280
00000740
00000F00
00001D00
00002800
00002000
00000000
1AA56AFE
05BFFE40
002FF800
001FF000
000FF000
000FE000
000FD000
000FD000
000FD000
000FC000
000FC000
000FC000
000F8000
000F8000
000F8000
000F8000
000F4000
000F4000
000F4000
000F4000
000F4000
000F4000
000F4000
000F4000
001F4000
002F8000
007FFE00
0B940000
64000000
ENDCHAR
STARTCHAR Icircumflex
ENCODING 206
SWIDTH 438 0
DWIDTH 12 0
BBX 16 37 -2 -5
BITMAP
00009000
0001F400
0002BC00
000A1F40
001807D0
006000B4
00800000
00000000
1AA56AFE
05BFFE40
002FF800
001FF000
000FF000
000FE000
000FD000
000FD000
000FD000
000FC000
000FC000
000FC000
000F8000
000F8000
000F8000
000F8000
000F4000
000F4000
000F4000
000F4000
000F4000
000F4000
000F4000
000F4000
001F4000
002F8000
007FFE00
0B940000
64000000
ENDCHAR
STARTCHAR Idieresis
ENCODING 207
SWIDTH 438 0
DWIDTH 12 0
BBX 16 34 -2 -5
BITMAP
002D0000
00BF0F40
00BF1F80
003D1F40
00000000
1AA56AFE
05BFFE40
002FF800
001FF000
000FF000
000FE000
000FD000
000FD000
000FD000
000FC000
000FC000
000FC000
000F8000
000F8000
000F8000
000F8000
000F4000
000F4000
000F4000
000F4000
000F4000
000F4000
000F4000
000F4000
001F4000
002F8000
007FFE00
0B940000
64000000
ENDCHAR
STARTCHAR Eth
ENCODING 208
SWIDTH 730 0
DWIDTH 20 0
BBX 21 23 0 -6
BITMAP
155ABFE80000
1AFE01FF8000
00BD002FF400
00BD000FFC00
00BD0007FE00
007D0003FF00
007D0002FF40
00BD0001FF80
00BD0001FF80
00BD1001FF80
6BFFE001FF80
54BD0001FF40
00BD0001FF40
00BE0002FE00
00BE0003FD00
00BE0007F800
00BE000FE000
00FF003F4000
00FF42E40000
01FFE9000000
03E400000000
190000000000
900000000000
ENDCHAR
STARTCHAR Ntilde
ENCODING 209
SWIDTH 799 0
DWIDTH 22 0
BBX 23 33 0 -6
BITMAP
00000B800000
000012E00000
000010BD2000
0000102FF000
0000000BD000
000000000000
001000000064
FFFD000FFFA0
02FF4000BD00
01FFD0002C00
00EFF4002800
00CBFC001800
00C2FE001800
00C0FF801800
00C07FE01800
00C02FF41800
00C00BFD2400
008003FF6400
008001FFF400
008000BFF400
0080002FF400
0080000FF400
00800007F400
00800001F400
00800000B400
008000002000
00D000000000
00D000000000
00D000000000
01E000000000
07F400000000
BFFD00000000
001680000000
ENDCHAR
STARTCHAR Ograve
ENCODING 210
SWIDTH 747 0
DWIDTH 21 0
BBX 21 29 0 1
BITMAP
003800000000
003E00000000
001F40000000
0007C0000000
0001E0000000
000060000000
000000000000
000000000000
0006FF900000
007D01BE0000
02E0002FD000
0BC0000BF400
1F800003FC00
2F400002FE00
7F000000FF00
BE000000FF40
BE000000BF80
BE0000007F80
FE0000007F80
BE0000007F80
BF0000007F80
7F0000007F40
7F4000007F00
2F800000BE00
1FD00000FC00
0BF00002F400
02F80007D000
007F406F4000
0006BFE40000
ENDCHAR
STARTCHAR Oacute
ENCODING 211
SWIDTH 747 0
DWIDTH 21 0
BBX 21 29 0 1
BITMAP
000002800000
000007400000
00000F000000
00001D000000
000028000000
000020000000
000000000000
000000000000
0006FF900000
007D01BE0000
02E0002FD000
0BC0000BF400
1F800003FC00
2F400002FE00
7F000000FF00
BE000000FF40
BE000000BF80
BE0000007F80
FE0000007F80
BE0000007F80
BF0000007F80
7F0000007F40
7F4000007F00
2F800000BE00
1FD00000FC00
0BF00002F400
02F80007D000
007F406F4000
0006BFE40000
ENDCHAR
STARTCHAR Ocircumflex
ENCODING 212
SWIDTH 747 0
DWIDTH 21 0
BBX 21 29 0 1
BITMAP
000024000000
00007C000000
0000EE000000
000247800000
000901F40000
0018002C0000
005000000000
000000000000
0006FF900000
007D01BE0000
02E0002FD000
0BC0000BF400
1F800003FC00
2F400002FE00
7F000000FF00
BE000000FF40
BE000000BF80
BE0000007F80
FE0000007F80
BE0000007F80
BF0000007F80
7F0000007F40
7F4000007F00
2F800000BE00
1FD00000FC00
0BF00002F400
02F80007D000
007F406F4000
0006BFE40000
ENDCHAR
STARTCHAR Otilde
ENCODING 213
SWIDTH 747 0
DWIDTH 21 0
BBX 21 27 0 1
BITMAP
0002E0000000
0004B8000000
00042F480000
00040BFC0000
000002E40000
000000000000
0006FF900000
007D01BE0000
02E0002FD000
0BC0000BF400
1F800003FC00
2F400002FE00
7F000000FF00
BE000000FF40
BE000000BF80
BE0000007F80
FE0000007F80
BE0000007F80
BF0000007F80
7F0000007F40
7F4000007F00
2F800000BE00
1FD00000FC00
0BF00002F400
02F80007D000
007F406F4000
0006BFE40000
ENDCHAR
STARTCHAR Odieresis
ENCODING 214
SWIDTH 747 0
DWIDTH 21 0
BBX 21 27 0 1
BITMAP
0007D0000000
000FE1E00000
000FE2F40000
0007D1E00000
000000000000
000000000000
0006FF900000
007D01BE0000
02E0002FD000
0BC0000BF400
1F800003FC00
2F400002FE00
7F000000FF00
BE000000FF40
BE000000BF80
BE0000007F80
FE0000007F80
BE0000007F80
BF0000007F80
7F0000007F40
7F4000007F00
2F800000BE00
1FD00000FC00
0BF00002F400
02F80007D000
007F406F4000
0006BFE40000
ENDCHAR
STARTCHAR multiply
ENCODING 215
SWIDTH 541 0
DWIDTH 15 0
BBX 13 17 1 0
BITMAP
00000040
00000240
00000A00
00001C00
18007000
0740D000
01D24000
007E0000
002E0000
0076D000
00907400
02800800
07000000
0D000000
28000000
70000000
50000000
ENDCHAR
STARTCHAR Oslash
ENCODING 216
SWIDTH 747 0
DWIDTH 21 0
BBX 21 26 0 -1
BITMAP
000000000200
000000000900
000000001800
0006FF903400
007D01BEA000
02E0002FD000
0BC0000BF400
1F80000BFC00
2F40002AFE00
7F000074FF00
BE0000D0FF40
BE000280BF80
BE000B007F80
FE001D007F80
BE0034007F80
BF00A0007F80
7F01C0007F40
7F4740007F00
2F8D0000BE00
1FE80000FC00
0BF00002F400
02F80007D000
02BF406F4000
0706FFE40000
0D0000000000
180000000000
ENDCHAR
STARTCHAR Ugrave
ENCODING 217
SWIDTH 690 0
DWIDTH 19 0
BBX 21 30 0 1
BITMAP
0001D0000000
0001F4000000
0000BC000000
00002E000000
00000B000000
000002400000
000000000000
000000000000
000000000000
000006000000
0001B9000000
05AFD0000000
FFFF80000000
0BFF03FAAA40
03FE001BE000
02FE0002D000
02FD0001D000
02FD0000C000
01FD0000C000
01FD0000C000
01FD0000C000
01FE0000C000
01FE0000C000
00FF00008000
00BF00018000
007F40024000
003FC0070000
001FF41D0000
0007FFF80000
0000BF900000
ENDCHAR
STARTCHAR Uacute
ENCODING 218
SWIDTH 690 0
DWIDTH 19 0
BBX 21 26 0 1
BITMAP
000000007000
00000000E000
00000002D000
000000038000
000000070000
000006090000
0001B9000000
05AFD0000000
FFFF80000000
0BFF03FAAA40
03FE001BE000
02FE0002D000
02FD0001D000
02FD0000C000
01FD0000C000
01FD0000C000
01FD0000C000
01FE0000C000
01FE0000C000
00FF00008000
00BF00018000
007F40024000
003FC0070000
001FF41D0000
0007FFF80000
0000BF900000
ENDCHAR
STARTCHAR Ucircumflex
ENCODING 219
SWIDTH 690 0
DWIDTH 19 0
BBX 21 28 0 1
BITMAP
000002400000
000007C00000
00000EE00000
000024780000
0000A01F4000
00018002C000
000500000000
000006000000
0001B9000000
05AFD0000000
FFFF80000000
0BFF03FAAA40
03FE001BE000
02FE0002D000
02FD0001D000
02FD0000C000
01FD0000C000
01FD0000C000
01FD0000C000
01FE0000C000
01FE0000C000
00FF00008000
00BF00018000
007F40024000
003FC0070000
001FF41D0000
0007FFF80000
0000BF900000
ENDCHAR
STARTCHAR Udieresis
ENCODING 220
SWIDTH 690 0
DWIDTH 19 0
BBX 21 27 0 1
BITMAP
0000B8000000
0001FD2D0000
0001FD7E0000
0000B82D0000
000000000000
000000000000
000006000000
0001B9000000
05AFD0000000
FFFF80000000
0BFF03FAAA40
03FE001BE000
02FE0002D000
02FD0001D000
02FD0000C000
01FD0000C000
01FD0000C000
01FD0000C000
01FE0000C000
01FE0000C000
00FF00008000
00BF00018000
007F40024000
003FC0070000
001FF41D0000
0007FFF80000
0000BF900000
ENDCHAR
STARTCHAR Yacute
ENCODING 221
SWIDTH 796 0
DWIDTH 22 0
BBX 25 33 0 -3
BITMAP
00000000600000
00000001E00000
00000002D00000
00000003800000
0000000B000000
00001008000000
005AD000000000
BFFE0000294000
07FD000007FF80
00FF0000074000
003F8000090000
001FE000180000
0007F400600000
0002FD00C00000
0000BF43400000
00003FEE000000
00001FFC000000
00000BF4000000
000007F0000000
000003F0000000
000002F0000000
000002F0000000
000002F0000000
000002F0000000
000002F4000000
000003F4000000
000003F4000000
000003F4000000
000007F4000000
00000BF8000000
00001FF8000000
0007FFFD000000
0000005B800000
ENDCHAR
STARTCHAR Thorn
ENCODING 222
SWIDTH 479 0
DWIDTH 13 0
BBX 13 28 1 -3
BITMAP
FFFE0000
1FE00000
0BC00000
0BC00000
0B800000
0BD00000
0BFFA400
0BD1FE00
0B807F40
0B403F80
0B402FC0
0B402FC0
0B402F80
0B403F40
0B81FE00
0BAFE400
0B800000
0F800000
0F800000
0F800000
0F800000
0F800000
0F800000
1F800000
1F800000
3FD00000
FFF80000
40140000
ENDCHAR
STARTCHAR germandbls
ENCODING 223
SWIDTH 591 0
DWIDTH 17 0
BBX 17 30 -1 -3
BITMAP
01BE400000
0747D00000
0D00F00000
1C00B80000
2800B80000
2800B80000
3800B80000
2C00B40000
2C00F00000
2D01D00000
2D03400000
1E09000000
1E7FF90000
1F01BFD000
0F400BF800
0F8002FE00
0B8000FF40
0BC0007F80
07D0002FC0
07E0001FC0
03F0000FC0
03F4000BC0
02F40007C0
01F80007C0
01FC780780
01FDBD0B00
02FE7F4D00
07E41FE000
2D00000000
5000000000
ENDCHAR
STARTCHAR agrave
ENCODING 224
SWIDTH 527 0
DWIDTH 15 0
BBX 16 27 0 -3
BITMAP
38000000
3E000000
1F400000
07C00000
01D00000
00600000
00000000
01BE4000
0747D000
0901F000
0D00F800
0F40FC00
0FD0BC00
0FE0BD00
06D07D00
00007E00
01BFFE00
0F807F00
3E003F00
7D003F40
BC003F40
BD003F80
7F41EF81
2FFF5FC2
0BF80FE6
00000BFD
000002F8
ENDCHAR
STARTCHAR aacute
ENCODING 225
SWIDTH 527 0
DWIDTH 15 0
BBX 16 27 0 -3
BITMAP
00007000
0000E000
0002D000
00038000
00070000
00090000
00000000
01BE4000
0747D000
0901F000
0D00F800
0F40FC00
0FD0BC00
0FE0BD00
06D07D00
00007E00
01BFFE00
0F807F00
3E003F00
7D003F40
BC003F40
BD003F80
7F41EF81
2FFF5FC2
0BF80FE6
00000BFD
000002F8
ENDCHAR
STARTCHAR acircumflex
ENCODING 226
SWIDTH 527 0
DWIDTH 15 0
BBX 16 27 0 -3
BITMAP
00090000
001F0000
003B8000
0091E000
02407D00
06000B00
14000000
01BE4000
0747D000
0901F000
0D00F800
0F40FC00
0FD0BC00
0FE0BD00
06D07D00
00007E00
01BFFE00
0F807F00
3E003F00
7D003F40
BC003F40
BD003F80
7F41EF81
2FFF5FC2
0BF80FE6
00000BFD
000002F8
ENDCHAR
STARTCHAR atilde
ENCODING 227
SWIDTH 527 0
DWIDTH 15 0
BBX 16 26 0 -3
BITMAP
00B80000
022E0000
010B9200
0403FE00
0000B800
00000000
01BE4000
0747D000
0901F000
0D00F800
0F40FC00
0FD0BC00
0FE0BD00
06D07D00
00007E00
01BFFE00
0F807F00
3E003F00
7D003F40
BC003F40
BD003F80
7F41EF81
2FFF5FC2
0BF80FE6
00000BFD
000002F8
ENDCHAR
STARTCHAR adieresis
ENCODING 228
SWIDTH 527 0
DWIDTH 15 0
BBX 16 24 0 -3
BITMAP
02D38000
07E7C000
02D78000
00000000
01BE4000
0747D000
0901F000
0D00F800
0F40FC00
0FD0BC00
0FE0BD00
06D07D00
00007E00
01BFFE00
0F807F00
3E003F00
7D003F40
BC003F40
BD003F80
7F41EF81
2FFF5FC2
0BF80FE6
00000BFD
000002F8
ENDCHAR
STARTCHAR aring
ENCODING 229
SWIDTH 527 0
DWIDTH 15 0
BBX 16 28 0 -3
BITMAP
002F8000
00A0A000
01C03000
01C03000
01E0A000
00FFD000
002F4000
00000000
01BE4000
0747D000
0901F000
0D00F800
0F40FC00
0FD0BC00
0FE0BD00
06D07D00
00007E00
01BFFE00
0F807F00
3E003F00
7D003F40
BC003F40
BD003F80
7F41EF81
2FFF5FC2
0BF80FE6
00000BFD
000002F8
ENDCHAR
STARTCHAR ae
ENCODING 230
SWIDTH 700 0
DWIDTH 20 0
BBX 19 19 0 -2
BITMAP
000000BE40
00000607E0
07E00801F4
1D2C2001F4
280E6000F4
3D0B9001F4
3F07C002F0
1E0BC00BD0
007FC06F40
0687FFE400
0E03D00000
2C03D00008
7803F00008
7803F4000C
B807FD001C
BD1DFF9078
7FFC7FFFF4
2FF82FFFE0
0BD006FE40
ENDCHAR
STARTCHAR ccedilla
ENCODING 231
SWIDTH 437 0
DWIDTH 12 0
BBX 12 23 0 -6
BITMAP
006FE0
0247F8
0A03FC
1C02FC
3C01F4
780000
780000
B80008
BC0009
7C0006
7E0006
3F400A
1FE02D
07FFF4
01BF90
000800
000D00
001FC0
0007E0
0002F0
0101E0
0182D0
006F40
ENDCHAR
STARTCHAR egrave
ENCODING 232
SWIDTH 434 0
DWIDTH 12 0
BBX 12 23 0 1
BITMAP
0E0000
0F8000
07D000
01E000
00B400
001800
000000
000000
006FE0
02E0B8
0B803D
1F402E
3F002E
7E003E
7E00BC
BE02F4
BFFE80
7F0009
7F0006
2F4006
1FC009
07F418
00BFA0
ENDCHAR
STARTCHAR eacute
ENCODING 233
SWIDTH 434 0
DWIDTH 12 0
BBX 12 22 0 1
BITMAP
000060
0001E0
0002C0
000780
000A00
000800
000000
006FE0
02E0B8
0B803D
1F402E
3F002E
7E003E
7E00BC
BE02F4
BFFE80
7F0009
7F0006
2F4006
1FC009
07F418
00BFA0
ENDCHAR
STARTCHAR ecircumflex
ENCODING 234
SWIDTH 434 0
DWIDTH 12 0
BBX 12 24 0 1
BITMAP
000800
002E00
007B80
00D2E0
0240B8
09001A
140000
000000
000000
006FE0
02E0B8
0B803D
1F402E
3F002E
7E003E
7E00BC
BE02F4
BFFE80
7F0009
7F0006
2F4006
1FC009
07F418
00BFA0
ENDCHAR
STARTCHAR edieresis
ENCODING 235
SWIDTH 434 0
DWIDTH 12 0
BBX 12 20 0 1
BITMAP
00B5E0
01FAF0
00F1E0
000000
000000
006FE0
02E0B8
0B803D
1F402E
3F002E
7E003E
7E00BC
BE02F4
BFFE80
7F0009
7F0006
2F4006
1FC009
07F418
00BFA0
ENDCHAR
STARTCHAR igrave
ENCODING 236
SWIDTH 301 0
DWIDTH 8 0
BBX 9 24 -1 2
BITMAP
E00000
F80000
7D0000
1F0000
078000
018000
000000
000000
000000
000500
017D00
1FFD00
02FC00
01FC00
01F800
01F800
01F800
01F800
01F400
01F400
01F400
01F400
02F900
1FBFC0
ENDCHAR
STARTCHAR iacute
ENCODING 237
SWIDTH 301 0
DWIDTH 8 0
BBX 8 23 0 2
BITMAP
001C
0038
00B4
00E0
01C0
0240
0000
0000
0014
05F4
7FF4
0BF0
07F0
07E0
07E0
07E0
07E0
07D0
07D0
07D0
07D0
0BE4
7EFF
ENDCHAR
STARTCHAR icircumflex
ENCODING 238
SWIDTH 301 0
DWIDTH 8 0
BBX 11 23 -1 2
BITMAP
006000
00F400
02AD00
060F40
0802E0
200074
800000
000000
000500
017D00
1FFD00
02FC00
01FC00
01F800
01F800
01F800
01F800
01F400
01F400
01F400
01F400
02F900
1FBFC0
ENDCHAR
STARTCHAR idieresis
ENCODING 239
SWIDTH 301 0
DWIDTH 8 0
BBX 8 20 0 2
BITMAP
1E2D
2F7E
1E2D
0000
0000
0014
05F4
7FF4
0BF0
07F0
07E0
07E0
07E0
07E0
07D0
07D0
07D0
07D0
0BE4
7EFF
ENDCHAR
STARTCHAR eth
ENCODING 240
SWIDTH 476 0
DWIDTH 13 0
BBX 15 25 -2 -3
BITMAP
00000800
00001400
01BEA000
1E01F400
60026D00
80050F40
00080780
000403D0
000002E0
000001F0
000001F4
000001F4
000BF9F8
002E0BF8
00B802F8
00F400FC
01F400BC
02F400B8
02F40078
01F40078
01F80074
00FC0070
007E00A0
001F82C0
0002FE00
ENDCHAR
STARTCHAR ntilde
ENCODING 241
SWIDTH 584 0
DWIDTH 16 0
BBX 16 23 0 0
BITMAP
0002E000
0004B800
00042F48
00040BFC
000002E4
00800000
01C00000
07D02F90
2FD0BFF4
47E247F8
03E501FC
02F800FC
02F800BC
01F800BC
00F400BC
00F400BC
00B400B8
00B400F8
007800F4
007802F4
00BD3FF4
0BFF41B8
0001400A
ENDCHAR
STARTCHAR ograve
ENCODING 242
SWIDTH 400 0
DWIDTH 11 0
BBX 19 22 0 5
BITMAP
00000002E0
00000003F8
00000002F8
28000000B8
2E00000034
1F40000030
07C0000020
01E0000080
0060000140
0000000600
0000002800
0000069000
02DFF90000
1F87D00000
3F02F00000
7D01F80000
BD01FC0000
BC01FC0000
7C02F80000
3D03F40000
1F4BD00000
06FE400000
ENDCHAR
STARTCHAR oacute
ENCODING 243
SWIDTH 400 0
DWIDTH 11 0
BBX 19 22 0 5
BITMAP
00000002E0
00000003F8
00000002F8
00000000B8
0000A00034
0001E00030
0002C00020
0007400080
000A000140
0008000600
0000002800
0000069000
02DFF90000
1F87D00000
3F02F00000
7D01F80000
BD01FC0000
BC01FC0000
7C02F80000
3D03F40000
1F4BD00000
06FE400000
ENDCHAR
STARTCHAR ocircumflex
ENCODING 244
SWIDTH 400 0
DWIDTH 11 0
BBX 19 22 0 5
BITMAP
00000002E0
00000003F8
00000002F8
00180000B8
003D000034
00AB400030
0182D00020
0200B80080
08001D0140
2000000600
0000002800
0000069000
02DFF90000
1F87D00000
3F02F00000
7D01F80000
BD01FC0000
BC01FC0000
7C02F80000
3D03F40000
1F4BD00000
06FE400000
ENDCHAR
STARTCHAR otilde
ENCODING 245
SWIDTH 400 0
DWIDTH 11 0
BBX 19 22 0 5
BITMAP
00000002E0
00000003F8
00000002F8
00000000B8
0000000034
0000000030
00F4000020
022E000080
050F820140
0403FE0600
0000B82800
0000069000
02DFF90000
1F87D00000
3F02F00000
7D01F80000
BD01FC0000
BC01FC0000
7C02F80000
3D03F40000
1F4BD00000
06FE400000
ENDCHAR
STARTCHAR odieresis
ENCODING 246
SWIDTH 400 0
DWIDTH 11 0
BBX 19 22 0 5
BITMAP
00000002E0
00000003F8
00000002F8
00000000B8
0000000034
0000000030
0000000020
01E2D00080
02F7E00140
01E2D00600
0000002800
0000069000
02DFF90000
1F87D00000
3F02F00000
7D01F80000
BD01FC0000
BC01FC0000
7C02F80000
3D03F40000
1F4BD00000
06FE400000
ENDCHAR
STARTCHAR divide
ENCODING 247
SWIDTH 592 0
DWIDTH 17 0
BBX 14 10 1 3
BITMAP
001E0000
002F4000
001E0000
00000000
00000000
7FFFFFE0
00000000
001F0000
002F4000
001E0000
ENDCHAR
STARTCHAR oslash
ENCODING 248
SWIDTH 396 0
DWIDTH 11 0
BBX 11 16 0 1
BITMAP
000900
000C00
02FE40
1F5BD0
3D26F0
7C31F4
B861F8
B891F8
7CC1F4
3E82F0
1F8BD0
07FE00
030000
060000
0A0000
090000
ENDCHAR
STARTCHAR ugrave
ENCODING 249
SWIDTH 744 0
DWIDTH 21 0
BBX 21 21 0 1
BITMAP
000E00000000
000F80000000
0007D0000000
0001F0000000
000078000000
000018000000
002000020000
00B0006F4000
07F40BFF4000
7BF4002F4000
01F8001F4000
00F8000F8000
00FC000F8000
00BC001F8000
00BD001F8000
007E002BC000
007F4037D000
003FD1A3FB80
002FFFD29400
000BFF400000
0002F9000000
ENDCHAR
STARTCHAR uacute
ENCODING 250
SWIDTH 744 0
DWIDTH 21 0
BBX 21 21 0 1
BITMAP
000002400000
00000B400000
00000E000000
00002D000000
000034000000
000060000000
002000020000
00B0006F4000
07F40BFF4000
7BF4002F4000
01F8001F4000
00F8000F8000
00FC000F8000
00BC001F8000
00BD001F8000
007E002BC000
007F4037D000
003FD1A3FB80
002FFFD29400
000BFF400000
0002F9000000
ENDCHAR
STARTCHAR ucircumflex
ENCODING 251
SWIDTH 744 0
DWIDTH 21 0
BBX 21 22 0 1
BITMAP
000090000000
0001F0000000
0003BC000000
000A1F000000
001807D00000
006000B40000
008000000000
002000020000
00B0006F4000
07F40BFF4000
7BF4002F4000
01F8001F4000
00F8000F8000
00FC000F8000
00BC001F8000
00BD001F8000
007E002BC000
007F4037D000
003FD1A3FB80
002FFFD29400
000BFF400000
0002F9000000
ENDCHAR
STARTCHAR udieresis
ENCODING 252
SWIDTH 744 0
DWIDTH 21 0
BBX 21 19 0 1
BITMAP
0002D3800000
0003E7D00000
0002D3800000
000000000000
002000020000
00B0006F4000
07F40BFF4000
7BF4002F4000
01F8001F4000
00F8000F8000
00FC000F8000
00BC001F8000
00BD001F8000
007E002BC000
007F4037D000
003FD1A3FB80
002FFFD29400
000BFF400000
0002F9000000
ENDCHAR
STARTCHAR yacute
ENCODING 253
SWIDTH 659 0
DWIDTH 18 0
BBX 18 33 0 -13
BITMAP
0000007000
000000E000
000002D000
0000038000
0000070000
0006490000
006D000050
17F40BFFE0
7FE001BFC0
0BE0003F80
0BE0002F80
07F0002F80
03F0002F40
03F4002F40
02F4003F40
01FC007F40
00FD00AF00
007F42AF00
002FFF2E00
0007F82E00
0000002D00
0000002D00
0000003C00
0000003800
0000007400
006E007000
00FF80A000
026F80D000
020F42C000
0200034000
02400A0000
00D0780000
006F900000
ENDCHAR
STARTCHAR thorn
ENCODING 254
SWIDTH 514 0
DWIDTH 14 0
BBX 16 40 -2 -17
BITMAP
001C0000
06F40000
7FE00000
03E00000
02E00000
02E00000
02F00000
01F00000
01F00000
01F2FE00
01FD1FD0
00F803F0
00F402F8
00F401FC
00F400FD
00F400FE
00F400FE
00F800FE
00F800FE
00FC01FE
00FC02FD
00BE0BFC
00BEFFF4
00BC6F90
00BC0000
00BC0000
00BD0000
00BD0000
00BD0000
00BD0000
00BD0000
00BD0000
00BE0000
00BE0000
00FE0000
00FE0000
00FF0000
02FF0000
1FFF9000
00016D00
ENDCHAR
STARTCHAR ydieresis
ENCODING 255
SWIDTH 659 0
DWIDTH 18 0
BBX 18 33 0 -13
BITMAP
0000B4E000
0000F9F400
0000B4E000
0000000000
0000000000
0006400000
006D000050
17F40BFFE0
7FE001BFC0
0BE0003F80
0BE0002F80
07F0002F80
03F0002F40
03F4002F40
02F4003F40
01FC007F40
00FD00AF00
007F42AF00
002FFF2E00
0007F82E00
0000002D00
0000002D00
0000003C00
0000003800
0000007400
006E007000
00FF80A000
026F80D000
020F42C000
0200034000
02400A0000
00D0780000
006F900000
ENDCHAR
STARTCHAR dotlessi
ENCODING 305
SWIDTH 301 0
DWIDTH 8 0
BBX 8 15 0 2
BITMAP
0014
05F4
7FF4
0BF0
07F0
07E0
07E0
07E0
07E0
07D0
07D0
07D0
07D0
0BE4
7EFF
ENDCHAR
STARTCHAR OE
ENCODING 338
SWIDTH 1132 0
DWIDTH 32 0
BBX 32 28 0 -5
BITMAP
0000000000000740
000000000001BF40
0006BF90BFFFAB40
007E417D2FE40140
02F4000B9FC00080
07D00002EFC00040
1F800000FFC00000
2F4000007FC00000
7F0000003FC00000
7F0000002FD00000
BF0000001FD00400
BF0000000FD00800
BF4000000FD06C00
BF4000000FFEBC00
BF8000000FE00C00
7FD000000FE00800
3FE000001FE00400
2FF400002FE00000
0FFC00007FE00001
07FF4000EFF00002
01FFE41B8FF00006
006FFFFE0BF00009
0006BFA00BF0000D
000000000BF4002D
000000000FF416FE
000000001FFFFFFE
00000000BE500004
0000000640000000
ENDCHAR
STARTCHAR oe
ENCODING 339
SWIDTH 798 0
DWIDTH 22 0
BBX 22 13 0 2
BITMAP
01BE4006F800
0B47E02D1F00
2D00FCB80740
3D007EF40740
7D003FF00B40
BD002FF02E00
BE001FFFE450
7F000FF00020
3F401FF40030
1FC01DFC0060
0BE474BF41D0
01BF902FFF80
00000006F900
ENDCHAR
STARTCHAR circumflex
ENCODING 710
SWIDTH 483 0
DWIDTH 14 0
BBX 11 7 1 18
BITMAP
002400
007C00
00EE00
024780
0A01F4
18002C
500000
ENDCHAR
STARTCHAR caron
ENCODING 711
SWIDTH 428 0
DWIDTH 12 0
BBX 10 8 1 19
BITMAP
000010
400080
740200
1D0900
0BB800
03F000
01D000
008000
ENDCHAR
STARTCHAR ring
ENCODING 730
SWIDTH 330 0
DWIDTH 9 0
BBX 7 7 1 23
BITMAP
0BD0
3464
6018
A018
7468
3FF4
1BD0
ENDCHAR
STARTCHAR tilde
ENCODING 732
SWIDTH 433 0
DWIDTH 12 0
BBX 10 5 1 20
BITMAP
1F4000
23D000
41F860
407FD0
001F80
ENDCHAR
STARTCHAR mu.dup1
ENCODING 956
SWIDTH 634 0
DWIDTH 18 0
BBX 17 25 1 -10
BITMAP
B800000000
F800010000
F8007E0000
B8003F0000
B8003F0000
B8002F0000
BC001F0000
BC001F4600
BD001F4240
BE002F8180
BF402F8080
BDD097D280
BC6F42FF40
BC0000BD00
7D00000000
7D00000000
7D00000000
7D00000000
7E00000000
7E00000000
7F00000000
7F00000000
7F00000000
3F00000000
1000000000
ENDCHAR
STARTCHAR endash
ENCODING 8211
SWIDTH 436 0
DWIDTH 12 0
BBX 10 2 1 5
BITMAP
140040
6FFFD0
ENDCHAR
STARTCHAR emdash
ENCODING 8212
SWIDTH 651 0
DWIDTH 18 0
BBX 16 2 1 6
BITMAP
055AABFE
6AA95500
ENDCHAR
STARTCHAR quoteleft
ENCODING 8216
SWIDTH 287 0
DWIDTH 8 0
BBX 6 9 1 14
BITMAP
0190
0A00
1D00
3E00
7F40
BF80
BFC0
7FC0
2F40
ENDCHAR
STARTCHAR quoteright
ENCODING 8217
SWIDTH 291 0
DWIDTH 8 0
BBX 6 10 1 13
BITMAP
2E40
7FD0
BFE0
7FE0
1FE0
07E0
01D0
01C0
0340
0900
ENDCHAR
STARTCHAR quotesinglbase
ENCODING 8218
SWIDTH 272 0
DWIDTH 8 0
BBX 6 9 1 -4
BITMAP
2F40
7FC0
7FD0
2FC0
07C0
0380
0300
0900
0800
ENDCHAR
STARTCHAR quotedblleft
ENCODING 8220
SWIDTH 445 0
DWIDTH 12 0
BBX 10 10 1 13
BITMAP
006000
028090
0A0280
1D0740
3D0B40
7E0BD0
BF4FF0
BFCBF0
7FC2D0
2F4000
ENDCHAR
STARTCHAR quotedblright
ENCODING 8221
SWIDTH 444 0
DWIDTH 12 0
BBX 10 10 1 14
BITMAP
2E0000
BF87D0
7FCFF0
2FDFF0
0B8BF0
0743E0
0702C0
090340
140900
006400
ENDCHAR
STARTCHAR quotedblbase
ENCODING 8222
SWIDTH 482 0
DWIDTH 14 0
BBX 11 11 1 -8
BITMAP
2F4000
7FC2F4
7FD7FC
7FE7FC
2FE3FC
07D1F8
02C0B4
0280B0
0340D0
050280
000600
ENDCHAR
STARTCHAR bullet
ENCODING 8226
SWIDTH 351 0
DWIDTH 10 0
BBX 8 7 1 8
BITMAP
0BE0
3FF8
7FFD
BFFD
BFFD
3FF8
1BE0
ENDCHAR
STARTCHAR guilsinglleft
ENCODING 8249
SWIDTH 465 0
DWIDTH 13 0
BBX 11 17 1 -2
BITMAP
000080
000240
000700
000D00
002C00
00B400
02E000
1FD000
7FD000
2FF000
07F800
00BD00
002F00
000B80
0002D0
0000B0
000018
ENDCHAR
STARTCHAR guilsinglright
ENCODING 8250
SWIDTH 449 0
DWIDTH 13 0
BBX 10 18 1 -3
BITMAP
240000
180000
0E0000
078000
02E000
01F800
00BF40
003FF0
007F80
00FE00
02F400
07D000
0B4000
1E0000
2C0000
340000
600000
400000
ENDCHAR
STARTCHAR fraction
ENCODING 8260
SWIDTH 406 0
DWIDTH 11 0
BBX 19 26 -4 0
BITMAP
0000000018
0000000030
00000000A0
00000001C0
0000000740
0000000A00
0000002800
0000007000
000000D000
0000028000
00000B0000
00001D0000
0000380000
0000A00000
0001C00000
0007400000
000A000000
002C000000
0074000000
00D0000000
0280000000
0700000000
0D00000000
2800000000
6000000000
C000000000
ENDCHAR
STARTCHAR foursuperior
ENCODING 8308
SWIDTH 473 0
DWIDTH 13 0
BBX 13 17 0 9
BITMAP
00040000
000D0000
001D0000
003D0000
007D0000
00AE0000
016E0000
021E0400
091F0800
081F6C00
240FFC00
7ABFFC00
150F8000
000FC000
000FF400
00BFFF80
00540000
ENDCHAR
STARTCHAR Euro
ENCODING 8364
SWIDTH 799 0
DWIDTH 22 0
BBX 24 23 0 -1
BITMAP
000000000005
000006BF900C
00006F906E78
0001FD000BF0
0007F00002E0
001FD00001D0
003F800000D0
007F400000C0
00BF00640080
00FF1A400000
01FF90000000
06FE06800000
7BFEB9000000
02FF40000000
1BFE00000000
FAFE00000500
00FF00000500
00BF40000900
007FC0000C00
002FE0002400
000BF901A000
0002FFFF8000
00006BF90000
ENDCHAR
STARTCHAR minus
ENCODING 8722
SWIDTH 436 0
DWIDTH 12 0
BBX 10 2 1 5
BITMAP
140040
6FFFD0
ENDCHAR
STARTCHAR f_f
ENCODING 64256
SWIDTH 467 0
DWIDTH 13 0
BBX 16 41 1 -9
BITMAP
001BD000
007FF400
00D7F800
0243F400
0302E000
06001BE0
0A00A0F8
0901C0BD
0D0341FD
0D0703FD
1D0B07FD
1D0E07FC
1D0E02E4
1D0E0000
1D1E0000
1D1E1400
1EAFE900
BE5F0000
5E0F0000
1E0F0000
1E0B4000
1F0B4000
1F0B8000
1F07C000
1F47C000
0F43D000
0F83E000
0F82F000
0FC1F400
0BC1F800
0BC0FE00
0BD0FFD0
0BD0F900
07E28000
07E10000
07F00000
07F40000
07F80000
07FC0000
1FFF4000
FEFFE000
ENDCHAR
STARTCHAR .notdef
ENCODING -1
SWIDTH 270 0
DWIDTH 8 0
BBX 6 17 1 0
BITMAP
FFE0
0000
0000
0000
0000
0000
0000
0000
0000
0000
0000
0000
0000
0000
0000
0000
FFE0
ENDCHAR
STARTCHAR .null
ENCODING -1
SWIDTH 0 0
DWIDTH 0 0
BBX 1 1 0 0
BITMAP
00
ENDCHAR
STARTCHAR nonmarkingreturn
ENCODING -1
SWIDTH 270 0
DWIDTH 8 0
BBX 1 1 0 0
BITMAP
00
ENDCHAR
STARTCHAR dieresis.case
ENCODING -1
SWIDTH 393 0
DWIDTH 11 0
BBX 9 4 1 21
BITMAP
2E0000
BF0F40
BF1F80
2D1F40
ENDCHAR
STARTCHAR o.cmp
ENCODING -1
SWIDTH 400 0
DWIDTH 11 0
BBX 19 22 0 5
BITMAP
00000002E0
00000003F8
00000002F8
00000000B8
0000000034
0000000030
0000000020
0000000080
0000000140
0000000600
0000002800
0000069000
02DFF90000
1F87D00000
3F02F00000
7D01F80000
BD01FC0000
BC01FC0000
7C02F80000
3D03F40000
1F4BD00000
06FE400000
ENDCHAR
STARTCHAR n_n
ENCODING -1
SWIDTH 1024 0
DWIDTH 29 0
BBX 29 19 0 -1
BITMAP
0080000000000000
02C0000000000000
1FD02F9000000000
ABD0FFF417000000
03E247F8FF000000
03E501FC2F0BE000
02F800FC2F7FF800
01F800BC2F91FD00
01F800BC2F80BE00
00F800BC2F407E00
00F400B82F007E00
00B400B82F007E00
00B400F82F00BD00
007800F43F40BD00
007802F4BFA1FC00
00BD3FF9502FFD00
0BFF46FD00001A40
0001401F00000000
0000000240000000
ENDCHAR
STARTCHAR a_a
ENCODING -1
SWIDTH 911 0
DWIDTH 26 0
BBX 27 20 0 -3
BITMAP
00000006F90000
0000002D0B8000
0000007C03D000
06F800BE01E000
1D1E00BF01F000
2807403D00F400
3D03800000F400
3E03800000F400
2D03C06FE5F800
0003C1F407F800
01BFC3E001F800
0FD3C7DF01F800
3F02CBCB41F800
7E03DBD242F800
7E03E7F65BF800
7F0AF1FFF9F800
3FF8B96F90FC04
1BE01BE400BC04
00000000007E20
00000000001BD0
ENDCHAR
STARTCHAR t_h
ENCODING -1
SWIDTH 854 0
DWIDTH 24 0
BBX 25 36 -1 -6
BITMAP
00000028000000
000000B8000000
00001BF8000000
0003FFF8000000
000002F4000000
000000F4000000
000000F4000000
000000F4000000
000050F4000000
0001C0F0000000
000781F0000000
006F81F0000000
6FFFFFFF000000
103F41F0000000
003E01F0000000
003E01F0000000
007E02E0BF9000
007E02E241F800
007D02E800BD00
007D02F4007E00
007D02F0003F00
007D03F0B83F40
007E03E0FD3F40
003E03E0BD3F40
002F03E03C3F00
001F43D0283F00
000BC7D0743F00
0002FBD1D03E00
00006FFE007D00
00000BE0007D00
00001FF400BC00
0000BFFD00FC00
0003941B81FC00
000000000BFD00
00000000BFFF00
00000000001680
ENDCHAR
STARTCHAR s_s
ENCODING -1
SWIDTH 654 0
DWIDTH 18 0
BBX 19 24 -1 -4
BITMAP
0000014004
000BEA0024
002D1C6FF0
007C09E0B0
007C07D030
007D03D020
002E03D010
001F83E000
000BE1F400
0002F8FC00
0000FE7E00
00003F7F40
00001F9FC0
09000BCBE0
0902D7D7F0
0D0BE7C3F8
1E0F87C2F8
2B4D0F42FC
419C6E02F8
002FE402F8
00090003F4
00020007E0
0001D02F80
00002FF900
ENDCHAR
STARTCHAR t_t
ENCODING -1
SWIDTH 569 0
DWIDTH 16 0
BBX 16 25 0 -2
BITMAP
0000B800
0000F800
0008F800
0019F400
0035F464
01F5FE40
0BFFF800
BFFBF000
07F2F000
07E2E000
07E2E000
07D2E000
07D2E000
07D2E000
0BD1F078
0BD1F0BE
07D0F46F
07D07806
03E02E09
03E007F4
02F002E0
00F403F0
007807F0
001E0BD0
0002BE40
ENDCHAR
STARTCHAR e_e
ENCODING -1
SWIDTH 782 0
DWIDTH 22 0
BBX 22 16 0 0
BITMAP
01BE006FD000
0B8381F47800
2F01C7C02C00
3D01DB801D00
BD01DF401D00
BC02DF401D00
FC03AF401D00
FC0B2F402C00
BD782F403800
BF902F407480
3E001F80E090
2F400FC28050
0BD00BEA0090
02F903F902C0
001BFEFFFF80
0000001BF900
ENDCHAR
STARTCHAR o_o
ENCODING -1
SWIDTH 751 0
DWIDTH 21 0
BBX 29 24 0 2
BITMAP
0000000000002E00
0000000000007F40
0000000000002F80
0000000000000B40
0000000000000340
0000000000000300
0000000000000600
0000000000000800
0000000000001400
0000000000006000
0000000000028000
00AFA00000690000
07E07C79FF900000
1F801FD078000000
2F000F403E000000
7E000F802F400000
7D002F801F400000
BD002F801F400000
BD002F802F400000
7D001F403E000000
3E001F91BC000000
2F003DBF90000000
0B81B40000000000
01BF900000000000
ENDCHAR
STARTCHAR l_l
ENCODING -1
SWIDTH 573 0
DWIDTH 16 0
BBX 18 28 -2 -4
BITMAP
0008002800
002C06F800
00BC7FF800
07FC07F800
14FC03F800
00FC02F800
00FC02F800
00FC02F800
00FC02F800
00BC01F800
00BC01F800
00BC01F800
00BC01F800
00BC01F800
00BD01F800
00BD01FC00
00BD01FC00
00FD01FC00
00FD01FD00
00FD01FD00
00FD01FE00
00FD02FF40
00FD1BEFF0
01FE000000
7FFF000000
05AF800000
0002E00000
0000100000
ENDCHAR
STARTCHAR z_z
ENCODING -1
SWIDTH 875 0
DWIDTH 25 0
BBX 26 19 -1 -2
BITMAP
0000A401A00000
0000BFFFE00000
00008007D00000
03940647C00000
0602FF0F400000
0103FD1F000000
0107F83E000000
000FF07D000000
001FD0FC000000
003F82F8010000
00BF03F0020000
00FD0BE0060780
02F80FD01E0FE0
03F01FFFFE0FE0
0BD00000000BE0
1F8000000007D0
3FAFFA500007C0
69005AFE501A00
00000006BFE400
ENDCHAR
STARTCHAR j_j
ENCODING -1
SWIDTH 577 0
DWIDTH 16 0
BBX 19 38 -3 -18
BITMAP
000002F400
000003F800
000003F800
0001E2E000
0002F40000
0001E06A00
00000BFF00
000019BF40
006FFE3F80
0007FE1FC0
0001FF0FD0
0000BF0BD0
00007F47E0
00003F43E0
00002F42F0
00001F82F0
00001F81F4
00000F81F4
00000F80F4
00000F80F4
00000B80B4
00000B80B8
00000B80B8
00000B40B8
1B900B4078
7FE00F4078
BFE00F0074
FFD00E00B4
F9001D00B4
E0002C00B0
D0007400B0
A000A000E0
29079400D0
06F9BE01C0
0000BF0280
0000BF8700
00007FFD00
00001BE000
ENDCHAR
STARTCHAR f_b
ENCODING -1
SWIDTH 731 0
DWIDTH 21 0
BBX 22 37 -1 -5
BITMAP
0000BE400000
000281D00000
000A00B00000
000C00F00000
002802F40000
00381FF00000
00347FE00000
00747FD00000
00B42F540000
00B401B40000
00B42FF80000
00F41BF80000
02FEA9F80000
AFF900F80000
41F400F80000
01F400F80000
01F400B40000
01F800B40000
01F800B40000
01F800B40000
00F800B40000
00F800B40000
00F800BAF900
00F800BD2F80
00F800B80FD0
00F800B40FD0
00F800B40FD0
00FC00B40FD0
00FC00B41FC0
00FC01F82F80
00FC07FFFD00
00FC19000000
00FC00000000
01FE00000000
02FFF4000000
1A5000000000
140000000000
ENDCHAR
STARTCHAR f_k
ENCODING -1
SWIDTH 708 0
DWIDTH 20 0
BBX 19 32 1 -4
BITMAP
0002000000
000B000000
007F000000
2BFFFD0000
007F0B8000
00AF0BD000
01DF1FD000
029F3FD000
034F3FC000
070F1F4000
0B0F400000
0F0F400000
0F0F400000
BE0F464000
5E0F40FE40
1E0F40E000
1E0F424000
1E0F450000
1E0F9D0000
1E0FBE0000
1E0F9F0040
1E0F8F4020
1E0F8BC014
1E0FC7E018
1E0FC2F824
1E0FC0BFF0
2F0FD02FD0
3F0FD00000
FF4FE00000
016FF54000
06FFFFD000
0540014000
ENDCHAR
STARTCHAR f_h
ENCODING -1
SWIDTH 873 0
DWIDTH 24 0
BBX 26 37 -1 -5
BITMAP
0000BE40000000
000281D0000000
000A00B0000000
000C00F0000000
001802F4000000
00282FF0000000
00347FE0000000
00747FD7000000
00742A5E000000
00B401FE000000
00B42FFD000000
00F4107D000000
01FEA83D000000
5BFD003D000000
96F8003C000000
01F4003C000000
01F4003C000000
01F8003C000000
01F8007C000000
01F8007C000000
01F8007C2F9000
00F8007C82F400
00F8007A01F800
00F800BE00FC00
00F800BD00FC00
00F800BC00FD00
00F800BC00FD00
00FC00F800FD00
00FC00F800FC00
00FC00F800FD00
00FC01F800FD00
00FC03F802FFD0
00FC7FFE054040
01FE0016400000
02FFE400000000
1A500000000000
14000000000000
ENDCHAR
ENDFONT
